<svg width="182" height="157" viewBox="0 0 182 157" fill="none" xmlns="http://www.w3.org/2000/svg">
<path d="M116.463 19.2266H125.01V27.7735H116.463V19.2266Z" fill="black" stroke="white" stroke-width="3"/>
<path d="M133.367 19.2266H141.914V27.7735H133.367V19.2266Z" fill="black" stroke="white" stroke-width="3"/>
<path d="M150.096 19.2266H158.643V27.7735H150.096V19.2266Z" fill="black" stroke="white" stroke-width="3"/>
<path d="M171.453 11.5469V10.5469H170.453H11.5469H10.5469V11.5469V35.3652V36.3652H11.5469H170.453H171.453V35.3652V11.5469ZM10.5469 145.843V146.843H11.5469H170.453H171.453V145.843V45.9121V44.9121H170.453H11.5469H10.5469V45.9121V145.843ZM2 155.39V2H180V155.39H2Z" fill="black" stroke="white" stroke-width="3"/>
<path d="M55.7479 84.2623C51.0198 83.2082 46.3161 86.1968 45.262 90.9249C44.2079 95.653 47.1965 100.357 51.9246 101.411C56.6527 102.465 61.3564 99.4763 62.4105 94.7482C63.4646 90.0201 60.476 85.3164 55.7479 84.2623ZM52.7371 97.7665C50.0187 97.1605 48.3002 94.4558 48.9063 91.7374C49.5123 89.019 52.217 87.3005 54.9354 87.9066C57.6538 88.5126 59.3723 91.2173 58.7662 93.9357C58.1602 96.6541 55.4555 98.3726 52.7371 97.7665Z" fill="black" stroke="black" stroke-width="0.274802"/>
<mask id="path-6-outside-1" maskUnits="userSpaceOnUse" x="25.7991" y="64.8064" width="56.1013" height="56.1013" fill="black">
<rect fill="white" x="25.7991" y="64.8064" width="56.1013" height="56.1013"/>
<path d="M69.0066 89.3455L73.8876 86.2442C74.6005 85.7914 74.8818 84.89 74.5535 84.1118C73.5733 81.7896 72.2214 79.6622 70.5357 77.7887C69.9709 77.1607 69.0352 77.0329 68.3226 77.4857L63.4416 80.5871C63.0088 80.2468 62.5596 79.9304 62.0953 79.6393L63.3537 73.995C63.5375 73.1706 63.0988 72.334 62.3163 72.0163C61.1419 71.5393 59.935 71.1613 58.7295 70.8925C57.5241 70.6238 56.2709 70.4533 55.0051 70.3863C54.1617 70.3414 53.4093 70.9125 53.2255 71.7369L51.9671 77.3812C51.4231 77.4475 50.882 77.5431 50.3456 77.6673L47.2443 72.7863C46.7915 72.0737 45.8903 71.7922 45.1122 72.1203C42.79 73.1004 40.6626 74.4522 38.7889 76.138C38.1611 76.7028 38.0331 77.6385 38.4861 78.3511L41.5874 83.2322C41.2471 83.665 40.9308 84.1142 40.6397 84.5785L34.9951 83.3201C34.1707 83.1362 33.3341 83.5749 33.0165 84.3574C32.5394 85.532 32.1614 86.7389 31.8926 87.9444C31.6239 89.1497 31.4534 90.4028 31.3864 91.6688C31.3416 92.5122 31.9126 93.2647 32.737 93.4485L38.3816 94.7069C38.4479 95.2509 38.5432 95.7919 38.6676 96.3284L33.7866 99.4297C33.0738 99.8824 32.7925 100.784 33.1208 101.562C34.101 103.884 35.4527 106.011 37.1384 107.885C37.7034 108.513 38.6388 108.641 39.3517 108.188L44.2327 105.087C44.6652 105.427 45.1147 105.743 45.579 106.035L44.3206 111.679C44.1368 112.504 44.5754 113.34 45.3579 113.658C46.5324 114.135 47.7392 114.513 48.9447 114.782C50.1502 115.05 51.4033 115.221 52.6691 115.288C53.5125 115.333 54.2649 114.762 54.4487 113.937L55.7072 108.293C56.2512 108.226 56.7922 108.131 57.3286 108.007L60.43 112.888C60.8827 113.6 61.7842 113.882 62.5621 113.553C64.8843 112.573 67.0117 111.222 68.8855 109.536C69.5132 108.971 69.6412 108.035 69.1884 107.323L66.0871 102.442C66.4274 102.009 66.7437 101.56 67.0349 101.095L72.6794 102.354C73.5038 102.537 74.3404 102.099 74.658 101.316C75.1349 100.142 75.5131 98.935 75.7819 97.7295C76.0506 96.5241 76.2211 95.2709 76.2881 94.0051C76.3329 93.1617 75.7619 92.4093 74.9375 92.2255L69.2929 90.967C69.2262 90.4229 69.1309 89.8819 69.0066 89.3455V89.3455ZM72.4054 96.9767C72.2811 97.534 72.129 98.0924 71.9502 98.6472L66.5393 97.4408C65.7691 97.2691 64.9802 97.6404 64.6221 98.3438C64.1121 99.3445 63.4582 100.274 62.6786 101.105C62.1388 101.681 62.0573 102.55 62.4807 103.216L65.4544 107.896C64.5388 108.602 63.5628 109.222 62.5348 109.751L59.5611 105.071C59.1379 104.405 58.3175 104.11 57.5669 104.354C56.4822 104.706 55.3631 104.903 54.2409 104.94C53.4522 104.966 52.7808 105.522 52.6091 106.292L51.4027 111.703C50.2466 111.555 49.1361 111.308 48.0267 110.95L49.233 105.539C49.4048 104.769 49.0335 103.98 48.3301 103.622C47.3294 103.112 46.4002 102.458 45.5685 101.679C44.9924 101.139 44.1243 101.057 43.4582 101.481L38.7782 104.454C38.0722 103.539 37.4522 102.563 36.9233 101.535L41.6031 98.5613C42.2692 98.138 42.5644 97.3176 42.3204 96.567C41.9678 95.4824 41.7705 94.3632 41.7339 93.2411C41.7082 92.4524 41.152 91.7809 40.3818 91.6092L34.9711 90.4029C35.0449 89.8247 35.1444 89.2546 35.2686 88.6973C35.3929 88.14 35.545 87.5817 35.7238 87.0269L41.1345 88.2332C41.9047 88.4049 42.6934 88.0336 43.0517 87.3305C43.5615 86.33 44.2155 85.4008 44.9954 84.5687C45.5351 83.9928 45.6165 83.1247 45.1932 82.4586L42.2198 77.7785C43.1353 77.0726 44.1111 76.4526 45.1391 75.9237L48.1128 80.6035C48.536 81.2696 49.3567 81.5648 50.1071 81.3208C51.1917 80.9682 52.3109 80.7709 53.433 80.7343C54.2217 80.7086 54.8929 80.1523 55.0646 79.3821L56.271 73.971C57.4272 74.1186 58.5377 74.3662 59.6471 74.7237L58.4407 80.1346C58.269 80.9048 58.6403 81.6937 59.3436 82.0518C60.344 82.5614 61.2734 83.2154 62.1054 83.9956C62.6812 84.535 63.5494 84.6166 64.2155 84.1934L68.8956 81.2197C69.6016 82.1353 70.2215 83.1113 70.7505 84.1393L66.0706 87.113C65.4045 87.5362 65.1093 88.3568 65.3533 89.1075C65.7057 90.1918 65.903 91.3108 65.9396 92.4331C65.9653 93.2218 66.5215 93.8932 67.2917 94.065L72.7026 95.2713C72.6291 95.8493 72.5296 96.4195 72.4054 96.9767Z"/>
</mask>
<path d="M69.0066 89.3455L73.8876 86.2442C74.6005 85.7914 74.8818 84.89 74.5535 84.1118C73.5733 81.7896 72.2214 79.6622 70.5357 77.7887C69.9709 77.1607 69.0352 77.0329 68.3226 77.4857L63.4416 80.5871C63.0088 80.2468 62.5596 79.9304 62.0953 79.6393L63.3537 73.995C63.5375 73.1706 63.0988 72.334 62.3163 72.0163C61.1419 71.5393 59.935 71.1613 58.7295 70.8925C57.5241 70.6238 56.2709 70.4533 55.0051 70.3863C54.1617 70.3414 53.4093 70.9125 53.2255 71.7369L51.9671 77.3812C51.4231 77.4475 50.882 77.5431 50.3456 77.6673L47.2443 72.7863C46.7915 72.0737 45.8903 71.7922 45.1122 72.1203C42.79 73.1004 40.6626 74.4522 38.7889 76.138C38.1611 76.7028 38.0331 77.6385 38.4861 78.3511L41.5874 83.2322C41.2471 83.665 40.9308 84.1142 40.6397 84.5785L34.9951 83.3201C34.1707 83.1362 33.3341 83.5749 33.0165 84.3574C32.5394 85.532 32.1614 86.7389 31.8926 87.9444C31.6239 89.1497 31.4534 90.4028 31.3864 91.6688C31.3416 92.5122 31.9126 93.2647 32.737 93.4485L38.3816 94.7069C38.4479 95.2509 38.5432 95.7919 38.6676 96.3284L33.7866 99.4297C33.0738 99.8824 32.7925 100.784 33.1208 101.562C34.101 103.884 35.4527 106.011 37.1384 107.885C37.7034 108.513 38.6388 108.641 39.3517 108.188L44.2327 105.087C44.6652 105.427 45.1147 105.743 45.579 106.035L44.3206 111.679C44.1368 112.504 44.5754 113.34 45.3579 113.658C46.5324 114.135 47.7392 114.513 48.9447 114.782C50.1502 115.05 51.4033 115.221 52.6691 115.288C53.5125 115.333 54.2649 114.762 54.4487 113.937L55.7072 108.293C56.2512 108.226 56.7922 108.131 57.3286 108.007L60.43 112.888C60.8827 113.6 61.7842 113.882 62.5621 113.553C64.8843 112.573 67.0117 111.222 68.8855 109.536C69.5132 108.971 69.6412 108.035 69.1884 107.323L66.0871 102.442C66.4274 102.009 66.7437 101.56 67.0349 101.095L72.6794 102.354C73.5038 102.537 74.3404 102.099 74.658 101.316C75.1349 100.142 75.5131 98.935 75.7819 97.7295C76.0506 96.5241 76.2211 95.2709 76.2881 94.0051C76.3329 93.1617 75.7619 92.4093 74.9375 92.2255L69.2929 90.967C69.2262 90.4229 69.1309 89.8819 69.0066 89.3455V89.3455ZM72.4054 96.9767C72.2811 97.534 72.129 98.0924 71.9502 98.6472L66.5393 97.4408C65.7691 97.2691 64.9802 97.6404 64.6221 98.3438C64.1121 99.3445 63.4582 100.274 62.6786 101.105C62.1388 101.681 62.0573 102.55 62.4807 103.216L65.4544 107.896C64.5388 108.602 63.5628 109.222 62.5348 109.751L59.5611 105.071C59.1379 104.405 58.3175 104.11 57.5669 104.354C56.4822 104.706 55.3631 104.903 54.2409 104.94C53.4522 104.966 52.7808 105.522 52.6091 106.292L51.4027 111.703C50.2466 111.555 49.1361 111.308 48.0267 110.95L49.233 105.539C49.4048 104.769 49.0335 103.98 48.3301 103.622C47.3294 103.112 46.4002 102.458 45.5685 101.679C44.9924 101.139 44.1243 101.057 43.4582 101.481L38.7782 104.454C38.0722 103.539 37.4522 102.563 36.9233 101.535L41.6031 98.5613C42.2692 98.138 42.5644 97.3176 42.3204 96.567C41.9678 95.4824 41.7705 94.3632 41.7339 93.2411C41.7082 92.4524 41.152 91.7809 40.3818 91.6092L34.9711 90.4029C35.0449 89.8247 35.1444 89.2546 35.2686 88.6973C35.3929 88.14 35.545 87.5817 35.7238 87.0269L41.1345 88.2332C41.9047 88.4049 42.6934 88.0336 43.0517 87.3305C43.5615 86.33 44.2155 85.4008 44.9954 84.5687C45.5351 83.9928 45.6165 83.1247 45.1932 82.4586L42.2198 77.7785C43.1353 77.0726 44.1111 76.4526 45.1391 75.9237L48.1128 80.6035C48.536 81.2696 49.3567 81.5648 50.1071 81.3208C51.1917 80.9682 52.3109 80.7709 53.433 80.7343C54.2217 80.7086 54.8929 80.1523 55.0646 79.3821L56.271 73.971C57.4272 74.1186 58.5377 74.3662 59.6471 74.7237L58.4407 80.1346C58.269 80.9048 58.6403 81.6937 59.3436 82.0518C60.344 82.5614 61.2734 83.2154 62.1054 83.9956C62.6812 84.535 63.5494 84.6166 64.2155 84.1934L68.8956 81.2197C69.6016 82.1353 70.2215 83.1113 70.7505 84.1393L66.0706 87.113C65.4045 87.5362 65.1093 88.3568 65.3533 89.1075C65.7057 90.1918 65.903 91.3108 65.9396 92.4331C65.9653 93.2218 66.5215 93.8932 67.2917 94.065L72.7026 95.2713C72.6291 95.8493 72.5296 96.4195 72.4054 96.9767Z" fill="black"/>
<path d="M69.0066 89.3455L73.8876 86.2442C74.6005 85.7914 74.8818 84.89 74.5535 84.1118C73.5733 81.7896 72.2214 79.6622 70.5357 77.7887C69.9709 77.1607 69.0352 77.0329 68.3226 77.4857L63.4416 80.5871C63.0088 80.2468 62.5596 79.9304 62.0953 79.6393L63.3537 73.995C63.5375 73.1706 63.0988 72.334 62.3163 72.0163C61.1419 71.5393 59.935 71.1613 58.7295 70.8925C57.5241 70.6238 56.2709 70.4533 55.0051 70.3863C54.1617 70.3414 53.4093 70.9125 53.2255 71.7369L51.9671 77.3812C51.4231 77.4475 50.882 77.5431 50.3456 77.6673L47.2443 72.7863C46.7915 72.0737 45.8903 71.7922 45.1122 72.1203C42.79 73.1004 40.6626 74.4522 38.7889 76.138C38.1611 76.7028 38.0331 77.6385 38.4861 78.3511L41.5874 83.2322C41.2471 83.665 40.9308 84.1142 40.6397 84.5785L34.9951 83.3201C34.1707 83.1362 33.3341 83.5749 33.0165 84.3574C32.5394 85.532 32.1614 86.7389 31.8926 87.9444C31.6239 89.1497 31.4534 90.4028 31.3864 91.6688C31.3416 92.5122 31.9126 93.2647 32.737 93.4485L38.3816 94.7069C38.4479 95.2509 38.5432 95.7919 38.6676 96.3284L33.7866 99.4297C33.0738 99.8824 32.7925 100.784 33.1208 101.562C34.101 103.884 35.4527 106.011 37.1384 107.885C37.7034 108.513 38.6388 108.641 39.3517 108.188L44.2327 105.087C44.6652 105.427 45.1147 105.743 45.579 106.035L44.3206 111.679C44.1368 112.504 44.5754 113.34 45.3579 113.658C46.5324 114.135 47.7392 114.513 48.9447 114.782C50.1502 115.05 51.4033 115.221 52.6691 115.288C53.5125 115.333 54.2649 114.762 54.4487 113.937L55.7072 108.293C56.2512 108.226 56.7922 108.131 57.3286 108.007L60.43 112.888C60.8827 113.6 61.7842 113.882 62.5621 113.553C64.8843 112.573 67.0117 111.222 68.8855 109.536C69.5132 108.971 69.6412 108.035 69.1884 107.323L66.0871 102.442C66.4274 102.009 66.7437 101.56 67.0349 101.095L72.6794 102.354C73.5038 102.537 74.3404 102.099 74.658 101.316C75.1349 100.142 75.5131 98.935 75.7819 97.7295C76.0506 96.5241 76.2211 95.2709 76.2881 94.0051C76.3329 93.1617 75.7619 92.4093 74.9375 92.2255L69.2929 90.967C69.2262 90.4229 69.1309 89.8819 69.0066 89.3455V89.3455ZM72.4054 96.9767C72.2811 97.534 72.129 98.0924 71.9502 98.6472L66.5393 97.4408C65.7691 97.2691 64.9802 97.6404 64.6221 98.3438C64.1121 99.3445 63.4582 100.274 62.6786 101.105C62.1388 101.681 62.0573 102.55 62.4807 103.216L65.4544 107.896C64.5388 108.602 63.5628 109.222 62.5348 109.751L59.5611 105.071C59.1379 104.405 58.3175 104.11 57.5669 104.354C56.4822 104.706 55.3631 104.903 54.2409 104.94C53.4522 104.966 52.7808 105.522 52.6091 106.292L51.4027 111.703C50.2466 111.555 49.1361 111.308 48.0267 110.95L49.233 105.539C49.4048 104.769 49.0335 103.98 48.3301 103.622C47.3294 103.112 46.4002 102.458 45.5685 101.679C44.9924 101.139 44.1243 101.057 43.4582 101.481L38.7782 104.454C38.0722 103.539 37.4522 102.563 36.9233 101.535L41.6031 98.5613C42.2692 98.138 42.5644 97.3176 42.3204 96.567C41.9678 95.4824 41.7705 94.3632 41.7339 93.2411C41.7082 92.4524 41.152 91.7809 40.3818 91.6092L34.9711 90.4029C35.0449 89.8247 35.1444 89.2546 35.2686 88.6973C35.3929 88.14 35.545 87.5817 35.7238 87.0269L41.1345 88.2332C41.9047 88.4049 42.6934 88.0336 43.0517 87.3305C43.5615 86.33 44.2155 85.4008 44.9954 84.5687C45.5351 83.9928 45.6165 83.1247 45.1932 82.4586L42.2198 77.7785C43.1353 77.0726 44.1111 76.4526 45.1391 75.9237L48.1128 80.6035C48.536 81.2696 49.3567 81.5648 50.1071 81.3208C51.1917 80.9682 52.3109 80.7709 53.433 80.7343C54.2217 80.7086 54.8929 80.1523 55.0646 79.3821L56.271 73.971C57.4272 74.1186 58.5377 74.3662 59.6471 74.7237L58.4407 80.1346C58.269 80.9048 58.6403 81.6937 59.3436 82.0518C60.344 82.5614 61.2734 83.2154 62.1054 83.9956C62.6812 84.535 63.5494 84.6166 64.2155 84.1934L68.8956 81.2197C69.6016 82.1353 70.2215 83.1113 70.7505 84.1393L66.0706 87.113C65.4045 87.5362 65.1093 88.3568 65.3533 89.1075C65.7057 90.1918 65.903 91.3108 65.9396 92.4331C65.9653 93.2218 66.5215 93.8932 67.2917 94.065L72.7026 95.2713C72.6291 95.8493 72.5296 96.4195 72.4054 96.9767Z" stroke="black" stroke-width="0.549604" mask="url(#path-6-outside-1)"/>
<line x1="92" y1="71.5" x2="151" y2="71.5" stroke="black" stroke-width="5"/>
<line x1="92" y1="92.5" x2="151" y2="92.5" stroke="black" stroke-width="5"/>
<line x1="92" y1="113.5" x2="151" y2="113.5" stroke="black" stroke-width="5"/>
</svg>
