<svg width="180" height="180" viewBox="0 0 180 180" fill="none" xmlns="http://www.w3.org/2000/svg">
<g clip-path="url(#clip0)">
<path d="M115.463 30.5312H124.01V39.0781H115.463V30.5312Z" fill="black" stroke="white" stroke-width="3"/>
<path d="M132.367 30.5312H140.914V39.0781H132.367V30.5312Z" fill="black" stroke="white" stroke-width="3"/>
<path d="M149.096 30.5312H157.643V39.0781H149.096V30.5312Z" fill="black" stroke="white" stroke-width="3"/>
<path d="M170.453 22.8516V21.8516H169.453H10.5469H9.54688V22.8516V46.6699V47.6699H10.5469H169.453H170.453V46.6699V22.8516ZM9.54688 157.148V158.148H10.5469H169.453H170.453V157.148V57.2168V56.2168H169.453H10.5469H9.54688V57.2168V157.148ZM1 166.695V13.3047H179V166.695H1Z" fill="black" stroke="white" stroke-width="3"/>
<g clip-path="url(#clip1)">
<path d="M58.001 136.995C62.0076 141.001 68.4928 141.002 72.4998 136.995L89.9963 119.498L110.497 139.999L124.996 125.5L104.495 104.999L117.733 91.7615L124.983 70.0131L103.234 77.2626L90.007 90.4898L69.5172 70L55.0183 84.4989L75.5082 104.989L58.001 122.496C54.0036 126.493 54.0036 132.998 58.001 136.995V136.995ZM107.242 84.8543L88.4486 103.647L91.3484 106.547L110.141 87.7541C111.119 88.7313 111.915 89.528 113.041 90.6538L85.5489 118.146L76.8496 109.447L104.342 81.9546L107.242 84.8543ZM82.6491 121.046L73.9497 129.745L65.2503 121.046L73.9497 112.347L82.6491 121.046ZM104.697 111.001L98.8979 116.801L101.798 119.7L107.597 113.901L110.497 116.8L104.697 122.6L107.597 125.5L113.397 119.7L119.196 125.5L110.497 134.199L92.8962 116.599L101.596 107.899L104.697 111.001ZM115.045 86.858L108.138 79.9509L118.499 76.4972L115.045 86.858ZM60.8179 84.4989L69.5172 75.7995L75.3168 81.599L69.5173 87.3985L72.4171 90.2983L78.2166 84.4988L81.1165 87.3987L75.317 93.1982L78.2167 96.0979L84.0164 90.2983L87.1075 93.3894L78.4081 102.089L60.8179 84.4989ZM60.9008 125.396L62.3507 123.946L71.0501 132.645L69.6002 134.095C67.2018 136.494 63.2992 136.493 60.9008 134.095C58.5024 131.697 58.5024 127.794 60.9008 125.396V125.396Z" fill="black"/>
<path d="M76.8569 121.05L73.9576 123.949L71.0582 121.05L73.9576 118.15L76.8569 121.05Z" fill="black"/>
</g>
</g>
<defs>
<clipPath id="clip0">
<rect width="180" height="180" fill="white"/>
</clipPath>
<clipPath id="clip1">
<rect width="70" height="70" fill="white" transform="translate(55 70)"/>
</clipPath>
</defs>
</svg>
