<svg width="182" height="157" viewBox="0 0 182 157" fill="none" xmlns="http://www.w3.org/2000/svg">
<path d="M116.463 19.2266H125.01V27.7735H116.463V19.2266Z" fill="black" stroke="white" stroke-width="3"/>
<path d="M133.367 19.2266H141.914V27.7735H133.367V19.2266Z" fill="black" stroke="white" stroke-width="3"/>
<path d="M150.096 19.2266H158.643V27.7735H150.096V19.2266Z" fill="black" stroke="white" stroke-width="3"/>
<path d="M171.453 11.5469V10.5469H170.453H11.5469H10.5469V11.5469V35.3652V36.3652H11.5469H170.453H171.453V35.3652V11.5469ZM10.5469 145.843V146.843H11.5469H170.453H171.453V145.843V45.9121V44.9121H170.453H11.5469H10.5469V45.9121V145.843ZM2 155.39V2H180V155.39H2Z" fill="black" stroke="white" stroke-width="3"/>
<line x1="30" y1="71.5" x2="151" y2="71.5" stroke="black" stroke-width="5"/>
<line x1="30" y1="113.5" x2="151" y2="113.5" stroke="black" stroke-width="5"/>
<line x1="30" y1="92.5" x2="151" y2="92.5" stroke="black" stroke-width="5"/>
</svg>
