<svg width="182" height="157" viewBox="0 0 182 157" fill="none" xmlns="http://www.w3.org/2000/svg">
<path d="M116.463 19.2266H125.01V27.7735H116.463V19.2266Z" fill="black" stroke="white" stroke-width="3"/>
<path d="M133.367 19.2266H141.914V27.7735H133.367V19.2266Z" fill="black" stroke="white" stroke-width="3"/>
<path d="M150.096 19.2266H158.643V27.7735H150.096V19.2266Z" fill="black" stroke="white" stroke-width="3"/>
<path d="M171.453 11.5469V10.5469H170.453H11.5469H10.5469V11.5469V35.3652V36.3652H11.5469H170.453H171.453V35.3652V11.5469ZM10.5469 145.843V146.843H11.5469H170.453H171.453V145.843V45.9121V44.9121H170.453H11.5469H10.5469V45.9121V145.843ZM2 155.39V2H180V155.39H2Z" fill="black" stroke="white" stroke-width="3"/>
<path d="M73.7479 74.2623C69.0198 73.2082 64.3161 76.1968 63.262 80.9249C62.2079 85.653 65.1965 90.3567 69.9246 91.4108C74.6527 92.4649 79.3564 89.4763 80.4105 84.7482C81.4646 80.0201 78.476 75.3164 73.7479 74.2623ZM70.7371 87.7665C68.0187 87.1605 66.3002 84.4558 66.9063 81.7374C67.5123 79.019 70.217 77.3005 72.9354 77.9066C75.6538 78.5126 77.3723 81.2173 76.7662 83.9357C76.1602 86.6541 73.4555 88.3726 70.7371 87.7665Z" fill="black" stroke="black" stroke-width="0.274802"/>
<mask id="path-6-outside-1" maskUnits="userSpaceOnUse" x="43.7991" y="54.8064" width="56.1013" height="56.1013" fill="black">
<rect fill="white" x="43.7991" y="54.8064" width="56.1013" height="56.1013"/>
<path d="M87.0066 79.3455L91.8876 76.2442C92.6005 75.7914 92.8818 74.89 92.5535 74.1118C91.5733 71.7896 90.2214 69.6622 88.5357 67.7887C87.9709 67.1607 87.0352 67.0329 86.3226 67.4857L81.4416 70.5871C81.0088 70.2468 80.5596 69.9304 80.0953 69.6393L81.3537 63.995C81.5375 63.1706 81.0988 62.334 80.3163 62.0163C79.1419 61.5393 77.935 61.1613 76.7295 60.8925C75.5241 60.6238 74.2709 60.4533 73.0051 60.3863C72.1617 60.3414 71.4093 60.9125 71.2255 61.7369L69.9671 67.3812C69.4231 67.4475 68.882 67.5431 68.3456 67.6673L65.2443 62.7863C64.7915 62.0737 63.8903 61.7922 63.1122 62.1203C60.79 63.1004 58.6626 64.4522 56.7889 66.138C56.1611 66.7028 56.0331 67.6385 56.4861 68.3511L59.5874 73.2322C59.2471 73.665 58.9308 74.1142 58.6397 74.5785L52.9951 73.3201C52.1707 73.1362 51.3341 73.5749 51.0165 74.3574C50.5394 75.532 50.1614 76.7389 49.8926 77.9444C49.6239 79.1497 49.4534 80.4028 49.3864 81.6688C49.3416 82.5122 49.9126 83.2647 50.737 83.4485L56.3816 84.7069C56.4479 85.2509 56.5432 85.7919 56.6676 86.3284L51.7866 89.4297C51.0738 89.8824 50.7925 90.7839 51.1208 91.5621C52.101 93.884 53.4527 96.0114 55.1384 97.8851C55.7034 98.5131 56.6388 98.6409 57.3517 98.1882L62.2327 95.0868C62.6652 95.4271 63.1147 95.7435 63.579 96.0346L62.3206 101.679C62.1368 102.504 62.5754 103.34 63.3579 103.658C64.5324 104.135 65.7392 104.513 66.9447 104.782C68.1502 105.05 69.4033 105.221 70.6691 105.288C71.5125 105.333 72.2649 104.762 72.4487 103.937L73.7072 98.2927C74.2512 98.2264 74.7922 98.131 75.3286 98.0066L78.43 102.888C78.8827 103.6 79.7842 103.882 80.5621 103.553C82.8843 102.573 85.0117 101.222 86.8855 99.5356C87.5132 98.9708 87.6412 98.0352 87.1884 97.3226L84.0871 92.4416C84.4274 92.009 84.7437 91.5595 85.0349 91.0952L90.6794 92.3537C91.5038 92.5375 92.3404 92.0988 92.658 91.3163C93.1349 90.1419 93.5131 88.935 93.7819 87.7295C94.0506 86.5241 94.2211 85.2709 94.2881 84.0051C94.3329 83.1617 93.7619 82.4093 92.9375 82.2255L87.2929 80.967C87.2262 80.4229 87.1309 79.8819 87.0066 79.3455V79.3455ZM90.4054 86.9767C90.2811 87.534 90.129 88.0924 89.9502 88.6472L84.5393 87.4408C83.7691 87.2691 82.9802 87.6404 82.6221 88.3438C82.1121 89.3445 81.4582 90.2737 80.6786 91.1054C80.1388 91.6813 80.0573 92.5496 80.4807 93.2157L83.4544 97.8958C82.5388 98.6017 81.5628 99.2219 80.5348 99.7509L77.5611 95.0708C77.1379 94.4047 76.3175 94.1095 75.5669 94.3535C74.4822 94.7061 73.3631 94.9034 72.2409 94.94C71.4522 94.9657 70.7808 95.5219 70.6091 96.2921L69.4027 101.703C68.2466 101.555 67.1361 101.308 66.0267 100.95L67.233 95.5394C67.4048 94.7692 67.0335 93.9803 66.3301 93.6222C65.3294 93.1122 64.4002 92.4583 63.5685 91.6787C62.9924 91.1389 62.1243 91.0574 61.4582 91.4808L56.7782 94.4543C56.0722 93.5387 55.4522 92.563 54.9233 91.535L59.6031 88.5613C60.2692 88.138 60.5644 87.3176 60.3204 86.567C59.9678 85.4824 59.7705 84.3632 59.7339 83.2411C59.7082 82.4524 59.152 81.7809 58.3818 81.6092L52.9711 80.4029C53.0449 79.8247 53.1444 79.2546 53.2686 78.6973C53.3929 78.14 53.545 77.5817 53.7238 77.0269L59.1345 78.2332C59.9047 78.4049 60.6934 78.0336 61.0517 77.3305C61.5615 76.33 62.2155 75.4008 62.9954 74.5687C63.5351 73.9928 63.6165 73.1247 63.1932 72.4586L60.2198 67.7785C61.1353 67.0726 62.1111 66.4526 63.1391 65.9237L66.1128 70.6035C66.536 71.2696 67.3567 71.5648 68.1071 71.3208C69.1917 70.9682 70.3109 70.7709 71.433 70.7343C72.2217 70.7086 72.8929 70.1523 73.0646 69.3821L74.271 63.971C75.4272 64.1186 76.5377 64.3662 77.6471 64.7237L76.4407 70.1346C76.269 70.9048 76.6403 71.6937 77.3436 72.0518C78.344 72.5614 79.2734 73.2154 80.1054 73.9956C80.6812 74.535 81.5494 74.6166 82.2155 74.1934L86.8956 71.2197C87.6016 72.1353 88.2215 73.1113 88.7505 74.1393L84.0706 77.113C83.4045 77.5362 83.1093 78.3568 83.3533 79.1075C83.7057 80.1918 83.903 81.3108 83.9396 82.4331C83.9653 83.2218 84.5215 83.8932 85.2917 84.065L90.7026 85.2713C90.6291 85.8493 90.5296 86.4195 90.4054 86.9767Z"/>
</mask>
<path d="M87.0066 79.3455L91.8876 76.2442C92.6005 75.7914 92.8818 74.89 92.5535 74.1118C91.5733 71.7896 90.2214 69.6622 88.5357 67.7887C87.9709 67.1607 87.0352 67.0329 86.3226 67.4857L81.4416 70.5871C81.0088 70.2468 80.5596 69.9304 80.0953 69.6393L81.3537 63.995C81.5375 63.1706 81.0988 62.334 80.3163 62.0163C79.1419 61.5393 77.935 61.1613 76.7295 60.8925C75.5241 60.6238 74.2709 60.4533 73.0051 60.3863C72.1617 60.3414 71.4093 60.9125 71.2255 61.7369L69.9671 67.3812C69.4231 67.4475 68.882 67.5431 68.3456 67.6673L65.2443 62.7863C64.7915 62.0737 63.8903 61.7922 63.1122 62.1203C60.79 63.1004 58.6626 64.4522 56.7889 66.138C56.1611 66.7028 56.0331 67.6385 56.4861 68.3511L59.5874 73.2322C59.2471 73.665 58.9308 74.1142 58.6397 74.5785L52.9951 73.3201C52.1707 73.1362 51.3341 73.5749 51.0165 74.3574C50.5394 75.532 50.1614 76.7389 49.8926 77.9444C49.6239 79.1497 49.4534 80.4028 49.3864 81.6688C49.3416 82.5122 49.9126 83.2647 50.737 83.4485L56.3816 84.7069C56.4479 85.2509 56.5432 85.7919 56.6676 86.3284L51.7866 89.4297C51.0738 89.8824 50.7925 90.7839 51.1208 91.5621C52.101 93.884 53.4527 96.0114 55.1384 97.8851C55.7034 98.5131 56.6388 98.6409 57.3517 98.1882L62.2327 95.0868C62.6652 95.4271 63.1147 95.7435 63.579 96.0346L62.3206 101.679C62.1368 102.504 62.5754 103.34 63.3579 103.658C64.5324 104.135 65.7392 104.513 66.9447 104.782C68.1502 105.05 69.4033 105.221 70.6691 105.288C71.5125 105.333 72.2649 104.762 72.4487 103.937L73.7072 98.2927C74.2512 98.2264 74.7922 98.131 75.3286 98.0066L78.43 102.888C78.8827 103.6 79.7842 103.882 80.5621 103.553C82.8843 102.573 85.0117 101.222 86.8855 99.5356C87.5132 98.9708 87.6412 98.0352 87.1884 97.3226L84.0871 92.4416C84.4274 92.009 84.7437 91.5595 85.0349 91.0952L90.6794 92.3537C91.5038 92.5375 92.3404 92.0988 92.658 91.3163C93.1349 90.1419 93.5131 88.935 93.7819 87.7295C94.0506 86.5241 94.2211 85.2709 94.2881 84.0051C94.3329 83.1617 93.7619 82.4093 92.9375 82.2255L87.2929 80.967C87.2262 80.4229 87.1309 79.8819 87.0066 79.3455V79.3455ZM90.4054 86.9767C90.2811 87.534 90.129 88.0924 89.9502 88.6472L84.5393 87.4408C83.7691 87.2691 82.9802 87.6404 82.6221 88.3438C82.1121 89.3445 81.4582 90.2737 80.6786 91.1054C80.1388 91.6813 80.0573 92.5496 80.4807 93.2157L83.4544 97.8958C82.5388 98.6017 81.5628 99.2219 80.5348 99.7509L77.5611 95.0708C77.1379 94.4047 76.3175 94.1095 75.5669 94.3535C74.4822 94.7061 73.3631 94.9034 72.2409 94.94C71.4522 94.9657 70.7808 95.5219 70.6091 96.2921L69.4027 101.703C68.2466 101.555 67.1361 101.308 66.0267 100.95L67.233 95.5394C67.4048 94.7692 67.0335 93.9803 66.3301 93.6222C65.3294 93.1122 64.4002 92.4583 63.5685 91.6787C62.9924 91.1389 62.1243 91.0574 61.4582 91.4808L56.7782 94.4543C56.0722 93.5387 55.4522 92.563 54.9233 91.535L59.6031 88.5613C60.2692 88.138 60.5644 87.3176 60.3204 86.567C59.9678 85.4824 59.7705 84.3632 59.7339 83.2411C59.7082 82.4524 59.152 81.7809 58.3818 81.6092L52.9711 80.4029C53.0449 79.8247 53.1444 79.2546 53.2686 78.6973C53.3929 78.14 53.545 77.5817 53.7238 77.0269L59.1345 78.2332C59.9047 78.4049 60.6934 78.0336 61.0517 77.3305C61.5615 76.33 62.2155 75.4008 62.9954 74.5687C63.5351 73.9928 63.6165 73.1247 63.1932 72.4586L60.2198 67.7785C61.1353 67.0726 62.1111 66.4526 63.1391 65.9237L66.1128 70.6035C66.536 71.2696 67.3567 71.5648 68.1071 71.3208C69.1917 70.9682 70.3109 70.7709 71.433 70.7343C72.2217 70.7086 72.8929 70.1523 73.0646 69.3821L74.271 63.971C75.4272 64.1186 76.5377 64.3662 77.6471 64.7237L76.4407 70.1346C76.269 70.9048 76.6403 71.6937 77.3436 72.0518C78.344 72.5614 79.2734 73.2154 80.1054 73.9956C80.6812 74.535 81.5494 74.6166 82.2155 74.1934L86.8956 71.2197C87.6016 72.1353 88.2215 73.1113 88.7505 74.1393L84.0706 77.113C83.4045 77.5362 83.1093 78.3568 83.3533 79.1075C83.7057 80.1918 83.903 81.3108 83.9396 82.4331C83.9653 83.2218 84.5215 83.8932 85.2917 84.065L90.7026 85.2713C90.6291 85.8493 90.5296 86.4195 90.4054 86.9767Z" fill="black"/>
<path d="M87.0066 79.3455L91.8876 76.2442C92.6005 75.7914 92.8818 74.89 92.5535 74.1118C91.5733 71.7896 90.2214 69.6622 88.5357 67.7887C87.9709 67.1607 87.0352 67.0329 86.3226 67.4857L81.4416 70.5871C81.0088 70.2468 80.5596 69.9304 80.0953 69.6393L81.3537 63.995C81.5375 63.1706 81.0988 62.334 80.3163 62.0163C79.1419 61.5393 77.935 61.1613 76.7295 60.8925C75.5241 60.6238 74.2709 60.4533 73.0051 60.3863C72.1617 60.3414 71.4093 60.9125 71.2255 61.7369L69.9671 67.3812C69.4231 67.4475 68.882 67.5431 68.3456 67.6673L65.2443 62.7863C64.7915 62.0737 63.8903 61.7922 63.1122 62.1203C60.79 63.1004 58.6626 64.4522 56.7889 66.138C56.1611 66.7028 56.0331 67.6385 56.4861 68.3511L59.5874 73.2322C59.2471 73.665 58.9308 74.1142 58.6397 74.5785L52.9951 73.3201C52.1707 73.1362 51.3341 73.5749 51.0165 74.3574C50.5394 75.532 50.1614 76.7389 49.8926 77.9444C49.6239 79.1497 49.4534 80.4028 49.3864 81.6688C49.3416 82.5122 49.9126 83.2647 50.737 83.4485L56.3816 84.7069C56.4479 85.2509 56.5432 85.7919 56.6676 86.3284L51.7866 89.4297C51.0738 89.8824 50.7925 90.7839 51.1208 91.5621C52.101 93.884 53.4527 96.0114 55.1384 97.8851C55.7034 98.5131 56.6388 98.6409 57.3517 98.1882L62.2327 95.0868C62.6652 95.4271 63.1147 95.7435 63.579 96.0346L62.3206 101.679C62.1368 102.504 62.5754 103.34 63.3579 103.658C64.5324 104.135 65.7392 104.513 66.9447 104.782C68.1502 105.05 69.4033 105.221 70.6691 105.288C71.5125 105.333 72.2649 104.762 72.4487 103.937L73.7072 98.2927C74.2512 98.2264 74.7922 98.131 75.3286 98.0066L78.43 102.888C78.8827 103.6 79.7842 103.882 80.5621 103.553C82.8843 102.573 85.0117 101.222 86.8855 99.5356C87.5132 98.9708 87.6412 98.0352 87.1884 97.3226L84.0871 92.4416C84.4274 92.009 84.7437 91.5595 85.0349 91.0952L90.6794 92.3537C91.5038 92.5375 92.3404 92.0988 92.658 91.3163C93.1349 90.1419 93.5131 88.935 93.7819 87.7295C94.0506 86.5241 94.2211 85.2709 94.2881 84.0051C94.3329 83.1617 93.7619 82.4093 92.9375 82.2255L87.2929 80.967C87.2262 80.4229 87.1309 79.8819 87.0066 79.3455V79.3455ZM90.4054 86.9767C90.2811 87.534 90.129 88.0924 89.9502 88.6472L84.5393 87.4408C83.7691 87.2691 82.9802 87.6404 82.6221 88.3438C82.1121 89.3445 81.4582 90.2737 80.6786 91.1054C80.1388 91.6813 80.0573 92.5496 80.4807 93.2157L83.4544 97.8958C82.5388 98.6017 81.5628 99.2219 80.5348 99.7509L77.5611 95.0708C77.1379 94.4047 76.3175 94.1095 75.5669 94.3535C74.4822 94.7061 73.3631 94.9034 72.2409 94.94C71.4522 94.9657 70.7808 95.5219 70.6091 96.2921L69.4027 101.703C68.2466 101.555 67.1361 101.308 66.0267 100.95L67.233 95.5394C67.4048 94.7692 67.0335 93.9803 66.3301 93.6222C65.3294 93.1122 64.4002 92.4583 63.5685 91.6787C62.9924 91.1389 62.1243 91.0574 61.4582 91.4808L56.7782 94.4543C56.0722 93.5387 55.4522 92.563 54.9233 91.535L59.6031 88.5613C60.2692 88.138 60.5644 87.3176 60.3204 86.567C59.9678 85.4824 59.7705 84.3632 59.7339 83.2411C59.7082 82.4524 59.152 81.7809 58.3818 81.6092L52.9711 80.4029C53.0449 79.8247 53.1444 79.2546 53.2686 78.6973C53.3929 78.14 53.545 77.5817 53.7238 77.0269L59.1345 78.2332C59.9047 78.4049 60.6934 78.0336 61.0517 77.3305C61.5615 76.33 62.2155 75.4008 62.9954 74.5687C63.5351 73.9928 63.6165 73.1247 63.1932 72.4586L60.2198 67.7785C61.1353 67.0726 62.1111 66.4526 63.1391 65.9237L66.1128 70.6035C66.536 71.2696 67.3567 71.5648 68.1071 71.3208C69.1917 70.9682 70.3109 70.7709 71.433 70.7343C72.2217 70.7086 72.8929 70.1523 73.0646 69.3821L74.271 63.971C75.4272 64.1186 76.5377 64.3662 77.6471 64.7237L76.4407 70.1346C76.269 70.9048 76.6403 71.6937 77.3436 72.0518C78.344 72.5614 79.2734 73.2154 80.1054 73.9956C80.6812 74.535 81.5494 74.6166 82.2155 74.1934L86.8956 71.2197C87.6016 72.1353 88.2215 73.1113 88.7505 74.1393L84.0706 77.113C83.4045 77.5362 83.1093 78.3568 83.3533 79.1075C83.7057 80.1918 83.903 81.3108 83.9396 82.4331C83.9653 83.2218 84.5215 83.8932 85.2917 84.065L90.7026 85.2713C90.6291 85.8493 90.5296 86.4195 90.4054 86.9767Z" stroke="black" stroke-width="0.549604" mask="url(#path-6-outside-1)"/>
<path d="M111.193 96.9257C106.759 95.1295 101.692 97.2746 99.8953 101.708C98.099 106.141 100.244 111.209 104.677 113.005C109.111 114.802 114.178 112.656 115.975 108.223C117.771 103.79 115.626 98.722 111.193 96.9257ZM106.063 109.586C103.516 108.553 102.283 105.641 103.315 103.094C104.347 100.546 107.259 99.3132 109.807 100.345C112.354 101.378 113.587 104.29 112.555 106.837C111.523 109.385 108.611 110.618 106.063 109.586Z" fill="black" stroke="black" stroke-width="0.274802"/>
<mask id="path-8-outside-2" maskUnits="userSpaceOnUse" x="77.8729" y="74.7558" width="59.9075" height="59.9075" fill="black">
<rect fill="white" x="77.8729" y="74.7558" width="59.9075" height="59.9075"/>
<path d="M123.275 104.035L128.532 101.809C129.3 101.484 129.721 100.652 129.528 99.841C128.951 97.4203 127.981 95.1287 126.644 93.03C126.197 92.3266 125.306 92.0499 124.539 92.3748L119.281 94.6004C118.915 94.1986 118.529 93.8175 118.124 93.4584L120.268 88.1671C120.581 87.3942 120.291 86.5082 119.58 86.0715C118.514 85.4159 117.401 84.8514 116.27 84.3935C115.14 83.9356 113.948 83.5657 112.726 83.2944C111.912 83.1135 111.087 83.5471 110.773 84.32L108.63 89.6114C108.089 89.5874 107.547 89.5924 107.004 89.6261L104.778 84.3684C104.454 83.6008 103.622 83.1801 102.811 83.3729C100.39 83.9494 98.0984 84.9194 95.9995 86.2562C95.2963 86.704 95.0194 87.5942 95.3445 88.3619L97.5701 93.6195C97.1683 93.9856 96.7872 94.3715 96.4281 94.7763L91.1365 92.6323C90.3636 92.3191 89.4776 92.6101 89.041 93.3204C88.3852 94.3865 87.8208 95.5002 87.3629 96.6303C86.9051 97.7602 86.5351 98.9527 86.2638 100.175C86.0829 100.989 86.5165 101.814 87.2893 102.127L92.5809 104.271C92.557 104.812 92.5617 105.354 92.5956 105.897L87.338 108.122C86.5702 108.447 86.1496 109.279 86.3426 110.09C86.9192 112.511 87.8892 114.803 89.2257 116.901C89.6737 117.605 90.5638 117.882 91.3316 117.557L96.5892 115.331C96.9551 115.733 97.3413 116.114 97.746 116.473L95.602 121.765C95.2888 122.538 95.5798 123.424 96.2901 123.86C97.3561 124.516 98.4697 125.08 99.5998 125.538C100.73 125.996 101.922 126.366 103.144 126.637C103.958 126.818 104.784 126.385 105.097 125.612L107.241 120.32C107.781 120.344 108.324 120.339 108.866 120.305L111.092 125.563C111.417 126.331 112.249 126.752 113.06 126.558C115.481 125.982 117.772 125.012 119.871 123.675C120.574 123.227 120.851 122.337 120.526 121.569L118.301 116.312C118.702 115.946 119.084 115.56 119.443 115.155L124.734 117.299C125.507 117.612 126.393 117.321 126.83 116.611C127.485 115.545 128.05 114.431 128.508 113.301C128.966 112.171 129.336 110.979 129.607 109.757C129.788 108.943 129.354 108.117 128.581 107.804L123.29 105.66C123.313 105.12 123.308 104.577 123.275 104.035V104.035ZM125.342 112.019C125.131 112.541 124.892 113.06 124.627 113.571L119.555 111.516C118.833 111.223 118.004 111.457 117.541 112.083C116.881 112.975 116.093 113.773 115.199 114.456C114.58 114.929 114.359 115.761 114.663 116.479L116.797 121.52C115.79 122.058 114.739 122.503 113.652 122.851L111.518 117.81C111.214 117.093 110.463 116.672 109.693 116.787C108.579 116.954 107.457 116.964 106.359 116.817C105.587 116.714 104.842 117.146 104.55 117.868L102.494 122.941C101.393 122.609 100.352 122.187 99.3294 121.658L101.385 116.586C101.677 115.864 101.444 115.035 100.818 114.572C99.926 113.912 99.1277 113.124 98.4447 112.23C97.9715 111.61 97.1395 111.39 96.4219 111.694L91.3808 113.827C90.8424 112.821 90.3975 111.77 90.0497 110.683L95.0907 108.549C95.8082 108.245 96.2291 107.494 96.1137 106.724C95.9468 105.61 95.9369 104.488 96.0838 103.39C96.1872 102.617 95.7548 101.873 95.0328 101.581L89.9604 99.5253C90.1264 98.9743 90.3161 98.4353 90.5277 97.9129C90.7394 97.3905 90.9784 96.8715 91.2428 96.3604L96.3151 98.4156C97.0372 98.7081 97.8656 98.4749 98.3289 97.8486C98.9883 96.9573 99.7762 96.1589 100.671 95.4756C101.29 95.0026 101.511 94.1706 101.207 93.4531L99.0734 88.412C100.08 87.8735 101.131 87.4286 102.218 87.0808L104.352 92.1218C104.656 92.8393 105.407 93.2603 106.177 93.1448C107.291 92.978 108.413 92.968 109.511 93.115C110.283 93.2183 111.028 92.7859 111.32 92.0638L113.375 86.991C114.477 87.323 115.518 87.7448 116.54 88.2734L114.485 93.346C114.193 94.068 114.426 94.8967 115.052 95.3599C115.944 96.0189 116.742 96.8069 117.425 97.702C117.898 98.321 118.73 98.5418 119.448 98.2381L124.489 96.1041C125.027 97.1105 125.472 98.1617 125.82 99.2488L120.779 101.383C120.062 101.687 119.641 102.438 119.756 103.208C119.923 104.322 119.933 105.443 119.786 106.542C119.682 107.314 120.115 108.059 120.837 108.351L125.909 110.406C125.744 110.957 125.554 111.496 125.342 112.019Z"/>
</mask>
<path d="M123.275 104.035L128.532 101.809C129.3 101.484 129.721 100.652 129.528 99.841C128.951 97.4203 127.981 95.1287 126.644 93.03C126.197 92.3266 125.306 92.0499 124.539 92.3748L119.281 94.6004C118.915 94.1986 118.529 93.8175 118.124 93.4584L120.268 88.1671C120.581 87.3942 120.291 86.5082 119.58 86.0715C118.514 85.4159 117.401 84.8514 116.27 84.3935C115.14 83.9356 113.948 83.5657 112.726 83.2944C111.912 83.1135 111.087 83.5471 110.773 84.32L108.63 89.6114C108.089 89.5874 107.547 89.5924 107.004 89.6261L104.778 84.3684C104.454 83.6008 103.622 83.1801 102.811 83.3729C100.39 83.9494 98.0984 84.9194 95.9995 86.2562C95.2963 86.704 95.0194 87.5942 95.3445 88.3619L97.5701 93.6195C97.1683 93.9856 96.7872 94.3715 96.4281 94.7763L91.1365 92.6323C90.3636 92.3191 89.4776 92.6101 89.041 93.3204C88.3852 94.3865 87.8208 95.5002 87.3629 96.6303C86.9051 97.7602 86.5351 98.9527 86.2638 100.175C86.0829 100.989 86.5165 101.814 87.2893 102.127L92.5809 104.271C92.557 104.812 92.5617 105.354 92.5956 105.897L87.338 108.122C86.5702 108.447 86.1496 109.279 86.3426 110.09C86.9192 112.511 87.8892 114.803 89.2257 116.901C89.6737 117.605 90.5638 117.882 91.3316 117.557L96.5892 115.331C96.9551 115.733 97.3413 116.114 97.746 116.473L95.602 121.765C95.2888 122.538 95.5798 123.424 96.2901 123.86C97.3561 124.516 98.4697 125.08 99.5998 125.538C100.73 125.996 101.922 126.366 103.144 126.637C103.958 126.818 104.784 126.385 105.097 125.612L107.241 120.32C107.781 120.344 108.324 120.339 108.866 120.305L111.092 125.563C111.417 126.331 112.249 126.752 113.06 126.558C115.481 125.982 117.772 125.012 119.871 123.675C120.574 123.227 120.851 122.337 120.526 121.569L118.301 116.312C118.702 115.946 119.084 115.56 119.443 115.155L124.734 117.299C125.507 117.612 126.393 117.321 126.83 116.611C127.485 115.545 128.05 114.431 128.508 113.301C128.966 112.171 129.336 110.979 129.607 109.757C129.788 108.943 129.354 108.117 128.581 107.804L123.29 105.66C123.313 105.12 123.308 104.577 123.275 104.035V104.035ZM125.342 112.019C125.131 112.541 124.892 113.06 124.627 113.571L119.555 111.516C118.833 111.223 118.004 111.457 117.541 112.083C116.881 112.975 116.093 113.773 115.199 114.456C114.58 114.929 114.359 115.761 114.663 116.479L116.797 121.52C115.79 122.058 114.739 122.503 113.652 122.851L111.518 117.81C111.214 117.093 110.463 116.672 109.693 116.787C108.579 116.954 107.457 116.964 106.359 116.817C105.587 116.714 104.842 117.146 104.55 117.868L102.494 122.941C101.393 122.609 100.352 122.187 99.3294 121.658L101.385 116.586C101.677 115.864 101.444 115.035 100.818 114.572C99.926 113.912 99.1277 113.124 98.4447 112.23C97.9715 111.61 97.1395 111.39 96.4219 111.694L91.3808 113.827C90.8424 112.821 90.3975 111.77 90.0497 110.683L95.0907 108.549C95.8082 108.245 96.2291 107.494 96.1137 106.724C95.9468 105.61 95.9369 104.488 96.0838 103.39C96.1872 102.617 95.7548 101.873 95.0328 101.581L89.9604 99.5253C90.1264 98.9743 90.3161 98.4353 90.5277 97.9129C90.7394 97.3905 90.9784 96.8715 91.2428 96.3604L96.3151 98.4156C97.0372 98.7081 97.8656 98.4749 98.3289 97.8486C98.9883 96.9573 99.7762 96.1589 100.671 95.4756C101.29 95.0026 101.511 94.1706 101.207 93.4531L99.0734 88.412C100.08 87.8735 101.131 87.4286 102.218 87.0808L104.352 92.1218C104.656 92.8393 105.407 93.2603 106.177 93.1448C107.291 92.978 108.413 92.968 109.511 93.115C110.283 93.2183 111.028 92.7859 111.32 92.0638L113.375 86.991C114.477 87.323 115.518 87.7448 116.54 88.2734L114.485 93.346C114.193 94.068 114.426 94.8967 115.052 95.3599C115.944 96.0189 116.742 96.8069 117.425 97.702C117.898 98.321 118.73 98.5418 119.448 98.2381L124.489 96.1041C125.027 97.1105 125.472 98.1617 125.82 99.2488L120.779 101.383C120.062 101.687 119.641 102.438 119.756 103.208C119.923 104.322 119.933 105.443 119.786 106.542C119.682 107.314 120.115 108.059 120.837 108.351L125.909 110.406C125.744 110.957 125.554 111.496 125.342 112.019Z" fill="black"/>
<path d="M123.275 104.035L128.532 101.809C129.3 101.484 129.721 100.652 129.528 99.841C128.951 97.4203 127.981 95.1287 126.644 93.03C126.197 92.3266 125.306 92.0499 124.539 92.3748L119.281 94.6004C118.915 94.1986 118.529 93.8175 118.124 93.4584L120.268 88.1671C120.581 87.3942 120.291 86.5082 119.58 86.0715C118.514 85.4159 117.401 84.8514 116.27 84.3935C115.14 83.9356 113.948 83.5657 112.726 83.2944C111.912 83.1135 111.087 83.5471 110.773 84.32L108.63 89.6114C108.089 89.5874 107.547 89.5924 107.004 89.6261L104.778 84.3684C104.454 83.6008 103.622 83.1801 102.811 83.3729C100.39 83.9494 98.0984 84.9194 95.9995 86.2562C95.2963 86.704 95.0194 87.5942 95.3445 88.3619L97.5701 93.6195C97.1683 93.9856 96.7872 94.3715 96.4281 94.7763L91.1365 92.6323C90.3636 92.3191 89.4776 92.6101 89.041 93.3204C88.3852 94.3865 87.8208 95.5002 87.3629 96.6303C86.9051 97.7602 86.5351 98.9527 86.2638 100.175C86.0829 100.989 86.5165 101.814 87.2893 102.127L92.5809 104.271C92.557 104.812 92.5617 105.354 92.5956 105.897L87.338 108.122C86.5702 108.447 86.1496 109.279 86.3426 110.09C86.9192 112.511 87.8892 114.803 89.2257 116.901C89.6737 117.605 90.5638 117.882 91.3316 117.557L96.5892 115.331C96.9551 115.733 97.3413 116.114 97.746 116.473L95.602 121.765C95.2888 122.538 95.5798 123.424 96.2901 123.86C97.3561 124.516 98.4697 125.08 99.5998 125.538C100.73 125.996 101.922 126.366 103.144 126.637C103.958 126.818 104.784 126.385 105.097 125.612L107.241 120.32C107.781 120.344 108.324 120.339 108.866 120.305L111.092 125.563C111.417 126.331 112.249 126.752 113.06 126.558C115.481 125.982 117.772 125.012 119.871 123.675C120.574 123.227 120.851 122.337 120.526 121.569L118.301 116.312C118.702 115.946 119.084 115.56 119.443 115.155L124.734 117.299C125.507 117.612 126.393 117.321 126.83 116.611C127.485 115.545 128.05 114.431 128.508 113.301C128.966 112.171 129.336 110.979 129.607 109.757C129.788 108.943 129.354 108.117 128.581 107.804L123.29 105.66C123.313 105.12 123.308 104.577 123.275 104.035V104.035ZM125.342 112.019C125.131 112.541 124.892 113.06 124.627 113.571L119.555 111.516C118.833 111.223 118.004 111.457 117.541 112.083C116.881 112.975 116.093 113.773 115.199 114.456C114.58 114.929 114.359 115.761 114.663 116.479L116.797 121.52C115.79 122.058 114.739 122.503 113.652 122.851L111.518 117.81C111.214 117.093 110.463 116.672 109.693 116.787C108.579 116.954 107.457 116.964 106.359 116.817C105.587 116.714 104.842 117.146 104.55 117.868L102.494 122.941C101.393 122.609 100.352 122.187 99.3294 121.658L101.385 116.586C101.677 115.864 101.444 115.035 100.818 114.572C99.926 113.912 99.1277 113.124 98.4447 112.23C97.9715 111.61 97.1395 111.39 96.4219 111.694L91.3808 113.827C90.8424 112.821 90.3975 111.77 90.0497 110.683L95.0907 108.549C95.8082 108.245 96.2291 107.494 96.1137 106.724C95.9468 105.61 95.9369 104.488 96.0838 103.39C96.1872 102.617 95.7548 101.873 95.0328 101.581L89.9604 99.5253C90.1264 98.9743 90.3161 98.4353 90.5277 97.9129C90.7394 97.3905 90.9784 96.8715 91.2428 96.3604L96.3151 98.4156C97.0372 98.7081 97.8656 98.4749 98.3289 97.8486C98.9883 96.9573 99.7762 96.1589 100.671 95.4756C101.29 95.0026 101.511 94.1706 101.207 93.4531L99.0734 88.412C100.08 87.8735 101.131 87.4286 102.218 87.0808L104.352 92.1218C104.656 92.8393 105.407 93.2603 106.177 93.1448C107.291 92.978 108.413 92.968 109.511 93.115C110.283 93.2183 111.028 92.7859 111.32 92.0638L113.375 86.991C114.477 87.323 115.518 87.7448 116.54 88.2734L114.485 93.346C114.193 94.068 114.426 94.8967 115.052 95.3599C115.944 96.0189 116.742 96.8069 117.425 97.702C117.898 98.321 118.73 98.5418 119.448 98.2381L124.489 96.1041C125.027 97.1105 125.472 98.1617 125.82 99.2488L120.779 101.383C120.062 101.687 119.641 102.438 119.756 103.208C119.923 104.322 119.933 105.443 119.786 106.542C119.682 107.314 120.115 108.059 120.837 108.351L125.909 110.406C125.744 110.957 125.554 111.496 125.342 112.019Z" stroke="black" stroke-width="0.549604" mask="url(#path-8-outside-2)"/>
</svg>
