<svg width="182" height="157" viewBox="0 0 182 157" fill="none" xmlns="http://www.w3.org/2000/svg">
<path d="M116.463 19.2266H125.01V27.7735H116.463V19.2266Z" fill="black" stroke="white" stroke-width="3"/>
<path d="M133.367 19.2266H141.914V27.7735H133.367V19.2266Z" fill="black" stroke="white" stroke-width="3"/>
<path d="M150.096 19.2266H158.643V27.7735H150.096V19.2266Z" fill="black" stroke="white" stroke-width="3"/>
<path d="M171.453 11.5469V10.5469H170.453H11.5469H10.5469V11.5469V35.3652V36.3652H11.5469H170.453H171.453V35.3652V11.5469ZM10.5469 145.843V146.843H11.5469H170.453H171.453V145.843V45.9121V44.9121H170.453H11.5469H10.5469V45.9121V145.843ZM2 155.39V2H180V155.39H2Z" fill="black" stroke="white" stroke-width="3"/>
<path d="M43.5598 70.7443C40.9374 70.1597 38.3288 71.8172 37.7441 74.4395C37.1595 77.0619 38.817 79.6705 41.4393 80.2551C44.0617 80.8398 46.6703 79.1823 47.2549 76.56C47.8396 73.9376 46.1821 71.329 43.5598 70.7443ZM41.933 78.0407C40.5321 77.7283 39.6463 76.3342 39.9586 74.9332C40.271 73.5323 41.6651 72.6465 43.066 72.9588C44.467 73.2712 45.3528 74.6653 45.0405 76.0662C44.7281 77.4672 43.334 78.353 41.933 78.0407Z" fill="black" stroke="black" stroke-width="0.4"/>
<mask id="path-6-outside-1" maskUnits="userSpaceOnUse" x="26.8709" y="59.8064" width="31.0348" height="31.0348" fill="black">
<rect fill="white" x="26.8709" y="59.8064" width="31.0348" height="31.0348"/>
<path d="M50.6963 73.6135L53.3335 71.9379C53.7186 71.6933 53.8706 71.2062 53.6932 70.7858C53.1637 69.5311 52.4332 68.3816 51.5224 67.3694C51.2173 67.0301 50.7117 66.9611 50.3267 67.2057L47.6895 68.8813C47.4557 68.6975 47.213 68.5266 46.9621 68.3693L47.642 65.3197C47.7413 64.8742 47.5043 64.4222 47.0815 64.2506C46.447 63.9929 45.7949 63.7886 45.1436 63.6434C44.4923 63.4982 43.8152 63.4061 43.1313 63.3699C42.6756 63.3457 42.2691 63.6542 42.1698 64.0996L41.4899 67.1492C41.1959 67.1851 40.9036 67.2367 40.6138 67.3038L38.9382 64.6666C38.6935 64.2816 38.2066 64.1295 37.7862 64.3068C36.5315 64.8363 35.3821 65.5667 34.3697 66.4776C34.0305 66.7827 33.9614 67.2882 34.2061 67.6733L35.8818 70.3105C35.6979 70.5443 35.527 70.787 35.3697 71.0379L32.32 70.358C31.8745 70.2587 31.4225 70.4957 31.2509 70.9185C30.9931 71.5531 30.7889 72.2052 30.6437 72.8565C30.4985 73.5077 30.4064 74.1848 30.3702 74.8688C30.3459 75.3245 30.6545 75.731 31.0999 75.8303L34.1496 76.5103C34.1855 76.8042 34.237 77.0965 34.3042 77.3863L31.667 79.062C31.2819 79.3066 31.1299 79.7936 31.3073 80.2141C31.8369 81.4686 32.5672 82.6181 33.478 83.6304C33.7832 83.9697 34.2886 84.0388 34.6738 83.7941L37.311 82.1185C37.5447 82.3023 37.7875 82.4733 38.0384 82.6306L37.3585 85.6803C37.2592 86.1257 37.4961 86.5777 37.919 86.7494C38.5535 87.007 39.2055 87.2113 39.8569 87.3566C40.5082 87.5018 41.1852 87.5939 41.8692 87.6301C42.3248 87.6543 42.7314 87.3458 42.8307 86.9003L43.5106 83.8506C43.8046 83.8148 44.0969 83.7633 44.3867 83.696L46.0623 86.3332C46.307 86.7184 46.794 86.8704 47.2143 86.693C48.469 86.1634 49.6184 85.4331 50.6308 84.5222C50.97 84.217 51.0392 83.7115 50.7945 83.3265L49.1189 80.6893C49.3027 80.4556 49.4736 80.2127 49.6309 79.9618L52.6807 80.6418C53.1261 80.7411 53.5781 80.5041 53.7497 80.0813C54.0074 79.4467 54.2117 78.7947 54.3569 78.1434C54.5021 77.4921 54.5942 76.815 54.6304 76.1311C54.6547 75.6754 54.3461 75.2689 53.9007 75.1696L50.851 74.4896C50.8149 74.1956 50.7634 73.9033 50.6963 73.6135V73.6135ZM52.5326 77.7366C52.4655 78.0377 52.3833 78.3394 52.2867 78.6392L49.3632 77.9874C48.9471 77.8946 48.5208 78.0952 48.3273 78.4752C48.0518 79.0159 47.6985 79.518 47.2773 79.9673C46.9856 80.2785 46.9416 80.7476 47.1704 81.1075L48.777 83.6362C48.2823 84.0176 47.755 84.3527 47.1996 84.6385L45.5929 82.1098C45.3642 81.7499 44.921 81.5905 44.5154 81.7223C43.9294 81.9128 43.3247 82.0194 42.7184 82.0392C42.2923 82.0531 41.9295 82.3536 41.8367 82.7697L41.1849 85.6932C40.5603 85.6134 39.9603 85.4797 39.3609 85.2866L40.0127 82.363C40.1054 81.9469 39.9048 81.5206 39.5248 81.3272C38.9841 81.0516 38.4821 80.6983 38.0327 80.2771C37.7214 79.9855 37.2525 79.9414 36.8925 80.1702L34.3639 81.7767C33.9825 81.2821 33.6475 80.7549 33.3617 80.1995L35.8902 78.5928C36.2501 78.3641 36.4096 77.9208 36.2778 77.5153C36.0873 76.9292 35.9807 76.3245 35.9609 75.7183C35.947 75.2921 35.6465 74.9294 35.2303 74.8366L32.307 74.1848C32.3469 73.8724 32.4006 73.5644 32.4677 73.2633C32.5349 72.9622 32.6171 72.6605 32.7136 72.3607L35.637 73.0125C36.0532 73.1053 36.4793 72.9047 36.6729 72.5248C36.9484 71.9842 37.3017 71.4822 37.7231 71.0326C38.0147 70.7214 38.0586 70.2524 37.83 69.8925L36.2234 67.3639C36.7181 66.9825 37.2453 66.6475 37.8007 66.3617L39.4074 68.8902C39.6361 69.2501 40.0795 69.4096 40.4849 69.2778C41.0709 69.0873 41.6756 68.9807 42.2819 68.9609C42.708 68.947 43.0707 68.6464 43.1634 68.2303L43.8153 65.3067C44.4399 65.3865 45.0399 65.5202 45.6393 65.7134L44.9875 68.6369C44.8948 69.053 45.0954 69.4793 45.4754 69.6728C46.0159 69.9481 46.518 70.3014 46.9676 70.723C47.2787 71.0144 47.7478 71.0585 48.1077 70.8298L50.6363 69.2232C51.0177 69.7178 51.3527 70.2452 51.6385 70.8006L49.11 72.4073C48.7501 72.636 48.5906 73.0793 48.7224 73.4849C48.9128 74.0708 49.0194 74.6753 49.0392 75.2817C49.0531 75.7079 49.3536 76.0706 49.7697 76.1634L52.6932 76.8152C52.6535 77.1275 52.5997 77.4356 52.5326 77.7366Z"/>
</mask>
<path d="M50.6963 73.6135L53.3335 71.9379C53.7186 71.6933 53.8706 71.2062 53.6932 70.7858C53.1637 69.5311 52.4332 68.3816 51.5224 67.3694C51.2173 67.0301 50.7117 66.9611 50.3267 67.2057L47.6895 68.8813C47.4557 68.6975 47.213 68.5266 46.9621 68.3693L47.642 65.3197C47.7413 64.8742 47.5043 64.4222 47.0815 64.2506C46.447 63.9929 45.7949 63.7886 45.1436 63.6434C44.4923 63.4982 43.8152 63.4061 43.1313 63.3699C42.6756 63.3457 42.2691 63.6542 42.1698 64.0996L41.4899 67.1492C41.1959 67.1851 40.9036 67.2367 40.6138 67.3038L38.9382 64.6666C38.6935 64.2816 38.2066 64.1295 37.7862 64.3068C36.5315 64.8363 35.3821 65.5667 34.3697 66.4776C34.0305 66.7827 33.9614 67.2882 34.2061 67.6733L35.8818 70.3105C35.6979 70.5443 35.527 70.787 35.3697 71.0379L32.32 70.358C31.8745 70.2587 31.4225 70.4957 31.2509 70.9185C30.9931 71.5531 30.7889 72.2052 30.6437 72.8565C30.4985 73.5077 30.4064 74.1848 30.3702 74.8688C30.3459 75.3245 30.6545 75.731 31.0999 75.8303L34.1496 76.5103C34.1855 76.8042 34.237 77.0965 34.3042 77.3863L31.667 79.062C31.2819 79.3066 31.1299 79.7936 31.3073 80.2141C31.8369 81.4686 32.5672 82.6181 33.478 83.6304C33.7832 83.9697 34.2886 84.0388 34.6738 83.7941L37.311 82.1185C37.5447 82.3023 37.7875 82.4733 38.0384 82.6306L37.3585 85.6803C37.2592 86.1257 37.4961 86.5777 37.919 86.7494C38.5535 87.007 39.2055 87.2113 39.8569 87.3566C40.5082 87.5018 41.1852 87.5939 41.8692 87.6301C42.3248 87.6543 42.7314 87.3458 42.8307 86.9003L43.5106 83.8506C43.8046 83.8148 44.0969 83.7633 44.3867 83.696L46.0623 86.3332C46.307 86.7184 46.794 86.8704 47.2143 86.693C48.469 86.1634 49.6184 85.4331 50.6308 84.5222C50.97 84.217 51.0392 83.7115 50.7945 83.3265L49.1189 80.6893C49.3027 80.4556 49.4736 80.2127 49.6309 79.9618L52.6807 80.6418C53.1261 80.7411 53.5781 80.5041 53.7497 80.0813C54.0074 79.4467 54.2117 78.7947 54.3569 78.1434C54.5021 77.4921 54.5942 76.815 54.6304 76.1311C54.6547 75.6754 54.3461 75.2689 53.9007 75.1696L50.851 74.4896C50.8149 74.1956 50.7634 73.9033 50.6963 73.6135V73.6135ZM52.5326 77.7366C52.4655 78.0377 52.3833 78.3394 52.2867 78.6392L49.3632 77.9874C48.9471 77.8946 48.5208 78.0952 48.3273 78.4752C48.0518 79.0159 47.6985 79.518 47.2773 79.9673C46.9856 80.2785 46.9416 80.7476 47.1704 81.1075L48.777 83.6362C48.2823 84.0176 47.755 84.3527 47.1996 84.6385L45.5929 82.1098C45.3642 81.7499 44.921 81.5905 44.5154 81.7223C43.9294 81.9128 43.3247 82.0194 42.7184 82.0392C42.2923 82.0531 41.9295 82.3536 41.8367 82.7697L41.1849 85.6932C40.5603 85.6134 39.9603 85.4797 39.3609 85.2866L40.0127 82.363C40.1054 81.9469 39.9048 81.5206 39.5248 81.3272C38.9841 81.0516 38.4821 80.6983 38.0327 80.2771C37.7214 79.9855 37.2525 79.9414 36.8925 80.1702L34.3639 81.7767C33.9825 81.2821 33.6475 80.7549 33.3617 80.1995L35.8902 78.5928C36.2501 78.3641 36.4096 77.9208 36.2778 77.5153C36.0873 76.9292 35.9807 76.3245 35.9609 75.7183C35.947 75.2921 35.6465 74.9294 35.2303 74.8366L32.307 74.1848C32.3469 73.8724 32.4006 73.5644 32.4677 73.2633C32.5349 72.9622 32.6171 72.6605 32.7136 72.3607L35.637 73.0125C36.0532 73.1053 36.4793 72.9047 36.6729 72.5248C36.9484 71.9842 37.3017 71.4822 37.7231 71.0326C38.0147 70.7214 38.0586 70.2524 37.83 69.8925L36.2234 67.3639C36.7181 66.9825 37.2453 66.6475 37.8007 66.3617L39.4074 68.8902C39.6361 69.2501 40.0795 69.4096 40.4849 69.2778C41.0709 69.0873 41.6756 68.9807 42.2819 68.9609C42.708 68.947 43.0707 68.6464 43.1634 68.2303L43.8153 65.3067C44.4399 65.3865 45.0399 65.5202 45.6393 65.7134L44.9875 68.6369C44.8948 69.053 45.0954 69.4793 45.4754 69.6728C46.0159 69.9481 46.518 70.3014 46.9676 70.723C47.2787 71.0144 47.7478 71.0585 48.1077 70.8298L50.6363 69.2232C51.0177 69.7178 51.3527 70.2452 51.6385 70.8006L49.11 72.4073C48.7501 72.636 48.5906 73.0793 48.7224 73.4849C48.9128 74.0708 49.0194 74.6753 49.0392 75.2817C49.0531 75.7079 49.3536 76.0706 49.7697 76.1634L52.6932 76.8152C52.6535 77.1275 52.5997 77.4356 52.5326 77.7366Z" fill="black"/>
<path d="M50.6963 73.6135L53.3335 71.9379C53.7186 71.6933 53.8706 71.2062 53.6932 70.7858C53.1637 69.5311 52.4332 68.3816 51.5224 67.3694C51.2173 67.0301 50.7117 66.9611 50.3267 67.2057L47.6895 68.8813C47.4557 68.6975 47.213 68.5266 46.9621 68.3693L47.642 65.3197C47.7413 64.8742 47.5043 64.4222 47.0815 64.2506C46.447 63.9929 45.7949 63.7886 45.1436 63.6434C44.4923 63.4982 43.8152 63.4061 43.1313 63.3699C42.6756 63.3457 42.2691 63.6542 42.1698 64.0996L41.4899 67.1492C41.1959 67.1851 40.9036 67.2367 40.6138 67.3038L38.9382 64.6666C38.6935 64.2816 38.2066 64.1295 37.7862 64.3068C36.5315 64.8363 35.3821 65.5667 34.3697 66.4776C34.0305 66.7827 33.9614 67.2882 34.2061 67.6733L35.8818 70.3105C35.6979 70.5443 35.527 70.787 35.3697 71.0379L32.32 70.358C31.8745 70.2587 31.4225 70.4957 31.2509 70.9185C30.9931 71.5531 30.7889 72.2052 30.6437 72.8565C30.4985 73.5077 30.4064 74.1848 30.3702 74.8688C30.3459 75.3245 30.6545 75.731 31.0999 75.8303L34.1496 76.5103C34.1855 76.8042 34.237 77.0965 34.3042 77.3863L31.667 79.062C31.2819 79.3066 31.1299 79.7936 31.3073 80.2141C31.8369 81.4686 32.5672 82.6181 33.478 83.6304C33.7832 83.9697 34.2886 84.0388 34.6738 83.7941L37.311 82.1185C37.5447 82.3023 37.7875 82.4733 38.0384 82.6306L37.3585 85.6803C37.2592 86.1257 37.4961 86.5777 37.919 86.7494C38.5535 87.007 39.2055 87.2113 39.8569 87.3566C40.5082 87.5018 41.1852 87.5939 41.8692 87.6301C42.3248 87.6543 42.7314 87.3458 42.8307 86.9003L43.5106 83.8506C43.8046 83.8148 44.0969 83.7633 44.3867 83.696L46.0623 86.3332C46.307 86.7184 46.794 86.8704 47.2143 86.693C48.469 86.1634 49.6184 85.4331 50.6308 84.5222C50.97 84.217 51.0392 83.7115 50.7945 83.3265L49.1189 80.6893C49.3027 80.4556 49.4736 80.2127 49.6309 79.9618L52.6807 80.6418C53.1261 80.7411 53.5781 80.5041 53.7497 80.0813C54.0074 79.4467 54.2117 78.7947 54.3569 78.1434C54.5021 77.4921 54.5942 76.815 54.6304 76.1311C54.6547 75.6754 54.3461 75.2689 53.9007 75.1696L50.851 74.4896C50.8149 74.1956 50.7634 73.9033 50.6963 73.6135V73.6135ZM52.5326 77.7366C52.4655 78.0377 52.3833 78.3394 52.2867 78.6392L49.3632 77.9874C48.9471 77.8946 48.5208 78.0952 48.3273 78.4752C48.0518 79.0159 47.6985 79.518 47.2773 79.9673C46.9856 80.2785 46.9416 80.7476 47.1704 81.1075L48.777 83.6362C48.2823 84.0176 47.755 84.3527 47.1996 84.6385L45.5929 82.1098C45.3642 81.7499 44.921 81.5905 44.5154 81.7223C43.9294 81.9128 43.3247 82.0194 42.7184 82.0392C42.2923 82.0531 41.9295 82.3536 41.8367 82.7697L41.1849 85.6932C40.5603 85.6134 39.9603 85.4797 39.3609 85.2866L40.0127 82.363C40.1054 81.9469 39.9048 81.5206 39.5248 81.3272C38.9841 81.0516 38.4821 80.6983 38.0327 80.2771C37.7214 79.9855 37.2525 79.9414 36.8925 80.1702L34.3639 81.7767C33.9825 81.2821 33.6475 80.7549 33.3617 80.1995L35.8902 78.5928C36.2501 78.3641 36.4096 77.9208 36.2778 77.5153C36.0873 76.9292 35.9807 76.3245 35.9609 75.7183C35.947 75.2921 35.6465 74.9294 35.2303 74.8366L32.307 74.1848C32.3469 73.8724 32.4006 73.5644 32.4677 73.2633C32.5349 72.9622 32.6171 72.6605 32.7136 72.3607L35.637 73.0125C36.0532 73.1053 36.4793 72.9047 36.6729 72.5248C36.9484 71.9842 37.3017 71.4822 37.7231 71.0326C38.0147 70.7214 38.0586 70.2524 37.83 69.8925L36.2234 67.3639C36.7181 66.9825 37.2453 66.6475 37.8007 66.3617L39.4074 68.8902C39.6361 69.2501 40.0795 69.4096 40.4849 69.2778C41.0709 69.0873 41.6756 68.9807 42.2819 68.9609C42.708 68.947 43.0707 68.6464 43.1634 68.2303L43.8153 65.3067C44.4399 65.3865 45.0399 65.5202 45.6393 65.7134L44.9875 68.6369C44.8948 69.053 45.0954 69.4793 45.4754 69.6728C46.0159 69.9481 46.518 70.3014 46.9676 70.723C47.2787 71.0144 47.7478 71.0585 48.1077 70.8298L50.6363 69.2232C51.0177 69.7178 51.3527 70.2452 51.6385 70.8006L49.11 72.4073C48.7501 72.636 48.5906 73.0793 48.7224 73.4849C48.9128 74.0708 49.0194 74.6753 49.0392 75.2817C49.0531 75.7079 49.3536 76.0706 49.7697 76.1634L52.6932 76.8152C52.6535 77.1275 52.5997 77.4356 52.5326 77.7366Z" stroke="black" stroke-width="0.8" mask="url(#path-6-outside-1)"/>
<path d="M42.5598 104.744C39.9374 104.16 37.3288 105.817 36.7441 108.44C36.1595 111.062 37.817 113.67 40.4393 114.255C43.0617 114.84 45.6703 113.182 46.2549 110.56C46.8396 107.938 45.1821 105.329 42.5598 104.744ZM40.933 112.041C39.5321 111.728 38.6463 110.334 38.9586 108.933C39.271 107.532 40.6651 106.646 42.066 106.959C43.467 107.271 44.3528 108.665 44.0405 110.066C43.7281 111.467 42.334 112.353 40.933 112.041Z" fill="black" stroke="black" stroke-width="0.4"/>
<mask id="path-8-outside-2" maskUnits="userSpaceOnUse" x="25.8709" y="93.8064" width="31.0348" height="31.0348" fill="black">
<rect fill="white" x="25.8709" y="93.8064" width="31.0348" height="31.0348"/>
<path d="M49.6963 107.614L52.3335 105.938C52.7186 105.693 52.8706 105.206 52.6932 104.786C52.1637 103.531 51.4332 102.382 50.5224 101.369C50.2173 101.03 49.7117 100.961 49.3267 101.206L46.6895 102.881C46.4557 102.697 46.213 102.527 45.9621 102.369L46.642 99.3197C46.7413 98.8742 46.5043 98.4222 46.0815 98.2506C45.447 97.9929 44.7949 97.7886 44.1436 97.6434C43.4923 97.4982 42.8152 97.4061 42.1313 97.3699C41.6756 97.3457 41.2691 97.6542 41.1698 98.0996L40.4899 101.149C40.1959 101.185 39.9036 101.237 39.6138 101.304L37.9382 98.6666C37.6935 98.2816 37.2066 98.1295 36.7862 98.3068C35.5315 98.8363 34.3821 99.5667 33.3697 100.478C33.0305 100.783 32.9614 101.288 33.2061 101.673L34.8818 104.31C34.6979 104.544 34.527 104.787 34.3697 105.038L31.32 104.358C30.8745 104.259 30.4225 104.496 30.2509 104.918C29.9931 105.553 29.7889 106.205 29.6437 106.856C29.4985 107.508 29.4064 108.185 29.3702 108.869C29.3459 109.324 29.6545 109.731 30.0999 109.83L33.1496 110.51C33.1855 110.804 33.237 111.097 33.3042 111.386L30.667 113.062C30.2819 113.307 30.1299 113.794 30.3073 114.214C30.8369 115.469 31.5672 116.618 32.478 117.63C32.7832 117.97 33.2886 118.039 33.6738 117.794L36.311 116.118C36.5447 116.302 36.7875 116.473 37.0384 116.631L36.3585 119.68C36.2592 120.126 36.4961 120.578 36.919 120.749C37.5535 121.007 38.2055 121.211 38.8569 121.357C39.5082 121.502 40.1852 121.594 40.8692 121.63C41.3248 121.654 41.7314 121.346 41.8307 120.9L42.5106 117.851C42.8046 117.815 43.0969 117.763 43.3867 117.696L45.0623 120.333C45.307 120.718 45.794 120.87 46.2143 120.693C47.469 120.163 48.6184 119.433 49.6308 118.522C49.97 118.217 50.0392 117.711 49.7945 117.326L48.1189 114.689C48.3027 114.456 48.4736 114.213 48.6309 113.962L51.6807 114.642C52.1261 114.741 52.5781 114.504 52.7497 114.081C53.0074 113.447 53.2117 112.795 53.3569 112.143C53.5021 111.492 53.5942 110.815 53.6304 110.131C53.6547 109.675 53.3461 109.269 52.9007 109.17L49.851 108.49C49.8149 108.196 49.7634 107.903 49.6963 107.614V107.614ZM51.5326 111.737C51.4655 112.038 51.3833 112.339 51.2867 112.639L48.3632 111.987C47.9471 111.895 47.5208 112.095 47.3273 112.475C47.0518 113.016 46.6985 113.518 46.2773 113.967C45.9856 114.279 45.9416 114.748 46.1704 115.108L47.777 117.636C47.2823 118.018 46.755 118.353 46.1996 118.638L44.5929 116.11C44.3642 115.75 43.921 115.59 43.5154 115.722C42.9294 115.913 42.3247 116.019 41.7184 116.039C41.2923 116.053 40.9295 116.354 40.8367 116.77L40.1849 119.693C39.5603 119.613 38.9603 119.48 38.3609 119.287L39.0127 116.363C39.1054 115.947 38.9048 115.521 38.5248 115.327C37.9841 115.052 37.4821 114.698 37.0327 114.277C36.7214 113.985 36.2525 113.941 35.8925 114.17L33.3639 115.777C32.9825 115.282 32.6475 114.755 32.3617 114.199L34.8902 112.593C35.2501 112.364 35.4096 111.921 35.2778 111.515C35.0873 110.929 34.9807 110.325 34.9609 109.718C34.947 109.292 34.6465 108.929 34.2303 108.837L31.307 108.185C31.3469 107.872 31.4006 107.564 31.4677 107.263C31.5349 106.962 31.6171 106.661 31.7136 106.361L34.637 107.013C35.0532 107.105 35.4793 106.905 35.6729 106.525C35.9484 105.984 36.3017 105.482 36.7231 105.033C37.0147 104.721 37.0586 104.252 36.83 103.893L35.2234 101.364C35.7181 100.982 36.2453 100.648 36.8007 100.362L38.4074 102.89C38.6361 103.25 39.0795 103.41 39.4849 103.278C40.0709 103.087 40.6756 102.981 41.2819 102.961C41.708 102.947 42.0707 102.646 42.1634 102.23L42.8153 99.3067C43.4399 99.3865 44.0399 99.5202 44.6393 99.7134L43.9875 102.637C43.8948 103.053 44.0954 103.479 44.4754 103.673C45.0159 103.948 45.518 104.301 45.9676 104.723C46.2787 105.014 46.7478 105.059 47.1077 104.83L49.6363 103.223C50.0177 103.718 50.3527 104.245 50.6385 104.801L48.11 106.407C47.7501 106.636 47.5906 107.079 47.7224 107.485C47.9128 108.071 48.0194 108.675 48.0392 109.282C48.0531 109.708 48.3536 110.071 48.7697 110.163L51.6932 110.815C51.6535 111.128 51.5997 111.436 51.5326 111.737Z"/>
</mask>
<path d="M49.6963 107.614L52.3335 105.938C52.7186 105.693 52.8706 105.206 52.6932 104.786C52.1637 103.531 51.4332 102.382 50.5224 101.369C50.2173 101.03 49.7117 100.961 49.3267 101.206L46.6895 102.881C46.4557 102.697 46.213 102.527 45.9621 102.369L46.642 99.3197C46.7413 98.8742 46.5043 98.4222 46.0815 98.2506C45.447 97.9929 44.7949 97.7886 44.1436 97.6434C43.4923 97.4982 42.8152 97.4061 42.1313 97.3699C41.6756 97.3457 41.2691 97.6542 41.1698 98.0996L40.4899 101.149C40.1959 101.185 39.9036 101.237 39.6138 101.304L37.9382 98.6666C37.6935 98.2816 37.2066 98.1295 36.7862 98.3068C35.5315 98.8363 34.3821 99.5667 33.3697 100.478C33.0305 100.783 32.9614 101.288 33.2061 101.673L34.8818 104.31C34.6979 104.544 34.527 104.787 34.3697 105.038L31.32 104.358C30.8745 104.259 30.4225 104.496 30.2509 104.918C29.9931 105.553 29.7889 106.205 29.6437 106.856C29.4985 107.508 29.4064 108.185 29.3702 108.869C29.3459 109.324 29.6545 109.731 30.0999 109.83L33.1496 110.51C33.1855 110.804 33.237 111.097 33.3042 111.386L30.667 113.062C30.2819 113.307 30.1299 113.794 30.3073 114.214C30.8369 115.469 31.5672 116.618 32.478 117.63C32.7832 117.97 33.2886 118.039 33.6738 117.794L36.311 116.118C36.5447 116.302 36.7875 116.473 37.0384 116.631L36.3585 119.68C36.2592 120.126 36.4961 120.578 36.919 120.749C37.5535 121.007 38.2055 121.211 38.8569 121.357C39.5082 121.502 40.1852 121.594 40.8692 121.63C41.3248 121.654 41.7314 121.346 41.8307 120.9L42.5106 117.851C42.8046 117.815 43.0969 117.763 43.3867 117.696L45.0623 120.333C45.307 120.718 45.794 120.87 46.2143 120.693C47.469 120.163 48.6184 119.433 49.6308 118.522C49.97 118.217 50.0392 117.711 49.7945 117.326L48.1189 114.689C48.3027 114.456 48.4736 114.213 48.6309 113.962L51.6807 114.642C52.1261 114.741 52.5781 114.504 52.7497 114.081C53.0074 113.447 53.2117 112.795 53.3569 112.143C53.5021 111.492 53.5942 110.815 53.6304 110.131C53.6547 109.675 53.3461 109.269 52.9007 109.17L49.851 108.49C49.8149 108.196 49.7634 107.903 49.6963 107.614V107.614ZM51.5326 111.737C51.4655 112.038 51.3833 112.339 51.2867 112.639L48.3632 111.987C47.9471 111.895 47.5208 112.095 47.3273 112.475C47.0518 113.016 46.6985 113.518 46.2773 113.967C45.9856 114.279 45.9416 114.748 46.1704 115.108L47.777 117.636C47.2823 118.018 46.755 118.353 46.1996 118.638L44.5929 116.11C44.3642 115.75 43.921 115.59 43.5154 115.722C42.9294 115.913 42.3247 116.019 41.7184 116.039C41.2923 116.053 40.9295 116.354 40.8367 116.77L40.1849 119.693C39.5603 119.613 38.9603 119.48 38.3609 119.287L39.0127 116.363C39.1054 115.947 38.9048 115.521 38.5248 115.327C37.9841 115.052 37.4821 114.698 37.0327 114.277C36.7214 113.985 36.2525 113.941 35.8925 114.17L33.3639 115.777C32.9825 115.282 32.6475 114.755 32.3617 114.199L34.8902 112.593C35.2501 112.364 35.4096 111.921 35.2778 111.515C35.0873 110.929 34.9807 110.325 34.9609 109.718C34.947 109.292 34.6465 108.929 34.2303 108.837L31.307 108.185C31.3469 107.872 31.4006 107.564 31.4677 107.263C31.5349 106.962 31.6171 106.661 31.7136 106.361L34.637 107.013C35.0532 107.105 35.4793 106.905 35.6729 106.525C35.9484 105.984 36.3017 105.482 36.7231 105.033C37.0147 104.721 37.0586 104.252 36.83 103.893L35.2234 101.364C35.7181 100.982 36.2453 100.648 36.8007 100.362L38.4074 102.89C38.6361 103.25 39.0795 103.41 39.4849 103.278C40.0709 103.087 40.6756 102.981 41.2819 102.961C41.708 102.947 42.0707 102.646 42.1634 102.23L42.8153 99.3067C43.4399 99.3865 44.0399 99.5202 44.6393 99.7134L43.9875 102.637C43.8948 103.053 44.0954 103.479 44.4754 103.673C45.0159 103.948 45.518 104.301 45.9676 104.723C46.2787 105.014 46.7478 105.059 47.1077 104.83L49.6363 103.223C50.0177 103.718 50.3527 104.245 50.6385 104.801L48.11 106.407C47.7501 106.636 47.5906 107.079 47.7224 107.485C47.9128 108.071 48.0194 108.675 48.0392 109.282C48.0531 109.708 48.3536 110.071 48.7697 110.163L51.6932 110.815C51.6535 111.128 51.5997 111.436 51.5326 111.737Z" fill="black"/>
<path d="M49.6963 107.614L52.3335 105.938C52.7186 105.693 52.8706 105.206 52.6932 104.786C52.1637 103.531 51.4332 102.382 50.5224 101.369C50.2173 101.03 49.7117 100.961 49.3267 101.206L46.6895 102.881C46.4557 102.697 46.213 102.527 45.9621 102.369L46.642 99.3197C46.7413 98.8742 46.5043 98.4222 46.0815 98.2506C45.447 97.9929 44.7949 97.7886 44.1436 97.6434C43.4923 97.4982 42.8152 97.4061 42.1313 97.3699C41.6756 97.3457 41.2691 97.6542 41.1698 98.0996L40.4899 101.149C40.1959 101.185 39.9036 101.237 39.6138 101.304L37.9382 98.6666C37.6935 98.2816 37.2066 98.1295 36.7862 98.3068C35.5315 98.8363 34.3821 99.5667 33.3697 100.478C33.0305 100.783 32.9614 101.288 33.2061 101.673L34.8818 104.31C34.6979 104.544 34.527 104.787 34.3697 105.038L31.32 104.358C30.8745 104.259 30.4225 104.496 30.2509 104.918C29.9931 105.553 29.7889 106.205 29.6437 106.856C29.4985 107.508 29.4064 108.185 29.3702 108.869C29.3459 109.324 29.6545 109.731 30.0999 109.83L33.1496 110.51C33.1855 110.804 33.237 111.097 33.3042 111.386L30.667 113.062C30.2819 113.307 30.1299 113.794 30.3073 114.214C30.8369 115.469 31.5672 116.618 32.478 117.63C32.7832 117.97 33.2886 118.039 33.6738 117.794L36.311 116.118C36.5447 116.302 36.7875 116.473 37.0384 116.631L36.3585 119.68C36.2592 120.126 36.4961 120.578 36.919 120.749C37.5535 121.007 38.2055 121.211 38.8569 121.357C39.5082 121.502 40.1852 121.594 40.8692 121.63C41.3248 121.654 41.7314 121.346 41.8307 120.9L42.5106 117.851C42.8046 117.815 43.0969 117.763 43.3867 117.696L45.0623 120.333C45.307 120.718 45.794 120.87 46.2143 120.693C47.469 120.163 48.6184 119.433 49.6308 118.522C49.97 118.217 50.0392 117.711 49.7945 117.326L48.1189 114.689C48.3027 114.456 48.4736 114.213 48.6309 113.962L51.6807 114.642C52.1261 114.741 52.5781 114.504 52.7497 114.081C53.0074 113.447 53.2117 112.795 53.3569 112.143C53.5021 111.492 53.5942 110.815 53.6304 110.131C53.6547 109.675 53.3461 109.269 52.9007 109.17L49.851 108.49C49.8149 108.196 49.7634 107.903 49.6963 107.614V107.614ZM51.5326 111.737C51.4655 112.038 51.3833 112.339 51.2867 112.639L48.3632 111.987C47.9471 111.895 47.5208 112.095 47.3273 112.475C47.0518 113.016 46.6985 113.518 46.2773 113.967C45.9856 114.279 45.9416 114.748 46.1704 115.108L47.777 117.636C47.2823 118.018 46.755 118.353 46.1996 118.638L44.5929 116.11C44.3642 115.75 43.921 115.59 43.5154 115.722C42.9294 115.913 42.3247 116.019 41.7184 116.039C41.2923 116.053 40.9295 116.354 40.8367 116.77L40.1849 119.693C39.5603 119.613 38.9603 119.48 38.3609 119.287L39.0127 116.363C39.1054 115.947 38.9048 115.521 38.5248 115.327C37.9841 115.052 37.4821 114.698 37.0327 114.277C36.7214 113.985 36.2525 113.941 35.8925 114.17L33.3639 115.777C32.9825 115.282 32.6475 114.755 32.3617 114.199L34.8902 112.593C35.2501 112.364 35.4096 111.921 35.2778 111.515C35.0873 110.929 34.9807 110.325 34.9609 109.718C34.947 109.292 34.6465 108.929 34.2303 108.837L31.307 108.185C31.3469 107.872 31.4006 107.564 31.4677 107.263C31.5349 106.962 31.6171 106.661 31.7136 106.361L34.637 107.013C35.0532 107.105 35.4793 106.905 35.6729 106.525C35.9484 105.984 36.3017 105.482 36.7231 105.033C37.0147 104.721 37.0586 104.252 36.83 103.893L35.2234 101.364C35.7181 100.982 36.2453 100.648 36.8007 100.362L38.4074 102.89C38.6361 103.25 39.0795 103.41 39.4849 103.278C40.0709 103.087 40.6756 102.981 41.2819 102.961C41.708 102.947 42.0707 102.646 42.1634 102.23L42.8153 99.3067C43.4399 99.3865 44.0399 99.5202 44.6393 99.7134L43.9875 102.637C43.8948 103.053 44.0954 103.479 44.4754 103.673C45.0159 103.948 45.518 104.301 45.9676 104.723C46.2787 105.014 46.7478 105.059 47.1077 104.83L49.6363 103.223C50.0177 103.718 50.3527 104.245 50.6385 104.801L48.11 106.407C47.7501 106.636 47.5906 107.079 47.7224 107.485C47.9128 108.071 48.0194 108.675 48.0392 109.282C48.0531 109.708 48.3536 110.071 48.7697 110.163L51.6932 110.815C51.6535 111.128 51.5997 111.436 51.5326 111.737Z" stroke="black" stroke-width="0.8" mask="url(#path-8-outside-2)"/>
<line x1="68.9695" y1="72.5002" x2="150.97" y2="71.5002" stroke="black" stroke-width="5"/>
<line x1="69" y1="113.5" x2="151" y2="113.5" stroke="black" stroke-width="5"/>
<line x1="69" y1="92.5" x2="151" y2="92.5" stroke="black" stroke-width="5"/>
</svg>
