<svg width="169" height="169" viewBox="0 0 169 169" fill="none" xmlns="http://www.w3.org/2000/svg">
<g clip-path="url(#clip0)">
<rect width="169" height="169" fill="white"/>
<path d="M2.5 89.5V109H56.5M2.5 89.5V3L142 3V89.5M2.5 89.5H142M142 89.5V109H84.5M56.5 109V129H33.5H84.5M56.5 109H84.5M108 129H84.5M84.5 129V109" stroke="black" stroke-width="5.5"/>
<path d="M102 64H166V76.5V142.5V166H102V142.5V76.5V64Z" fill="white"/>
<path d="M102 142.5V166H166V142.5M102 142.5H166M102 142.5V76.5M166 142.5V76.5M127.5 155.5H140.5M102 76.5V64H166V76.5M102 76.5H166" stroke="black" stroke-width="5.5"/>
</g>
<defs>
<clipPath id="clip0">
<rect width="169" height="169" fill="white"/>
</clipPath>
</defs>
</svg>
