<svg width="180" height="180" viewBox="0 0 180 180" fill="none" xmlns="http://www.w3.org/2000/svg">
<g clip-path="url(#clip0)">
<path d="M115.463 30.5312H124.01V39.0781H115.463V30.5312Z" fill="black" stroke="white" stroke-width="3"/>
<path d="M132.367 30.5312H140.914V39.0781H132.367V30.5312Z" fill="black" stroke="white" stroke-width="3"/>
<path d="M149.096 30.5312H157.643V39.0781H149.096V30.5312Z" fill="black" stroke="white" stroke-width="3"/>
<path d="M170.453 22.8516V21.8516H169.453H10.5469H9.54688V22.8516V46.6699V47.6699H10.5469H169.453H170.453V46.6699V22.8516ZM9.54688 157.148V158.148H10.5469H169.453H170.453V157.148V57.2168V56.2168H169.453H10.5469H9.54688V57.2168V157.148ZM1 166.695V13.3047H179V166.695H1Z" fill="black" stroke="white" stroke-width="3"/>
<path d="M108.942 84.063H71.191L56.0938 98.9231L90.0662 139L124.039 98.9231L108.942 84.063ZM96.4867 101.1L90.079 127.259L83.6708 101.1H96.4867ZM84.9888 96.9984L90.0828 89.6978L95.1772 96.9984H84.9888ZM94.0149 88.1651H104.203L99.1089 95.4651L94.0149 88.1651ZM81.0571 95.4651L75.9627 88.1651H86.151L81.0571 95.4651ZM77.1249 96.9984H63.8969L71.7389 89.2791L77.1249 96.9984ZM79.4476 101.1L86.0036 127.864L63.3168 101.1H79.4476ZM100.71 101.1H116.816L94.164 127.822L100.71 101.1ZM103.041 96.9984L108.414 89.2989L116.236 96.9984H103.041Z" fill="black"/>
<path d="M87.7324 69H91.834V77.5H87.7324V69Z" fill="black"/>
<path d="M98.1035 77.6834L101.43 69.7153L105.215 71.2956L101.889 79.2632L98.1035 77.6834Z" fill="black"/>
<path d="M74.3516 71.2945L78.137 69.7148L81.4631 77.6824L77.6777 79.2621L74.3516 71.2945Z" fill="black"/>
</g>
<defs>
<clipPath id="clip0">
<rect width="180" height="180" fill="white"/>
</clipPath>
</defs>
</svg>
