<svg width="1000" height="300" viewBox="0 0 1000 300" fill="none" xmlns="http://www.w3.org/2000/svg">
<path d="M81.3452 283.342C78.9526 283.342 77.0955 282.482 75.7739 280.761H75.5347C75.6942 282.356 75.7739 283.325 75.7739 283.667V291.408H71.7578V264.099H75.0049C75.096 264.452 75.284 265.295 75.5688 266.628H75.7739C77.0272 264.714 78.9071 263.757 81.4136 263.757C83.772 263.757 85.6063 264.611 86.9165 266.32C88.2381 268.029 88.8989 270.428 88.8989 273.515C88.8989 276.603 88.2267 279.012 86.8823 280.744C85.5493 282.476 83.7036 283.342 81.3452 283.342ZM80.3711 267.038C78.776 267.038 77.6082 267.505 76.8677 268.439C76.1385 269.374 75.7739 270.866 75.7739 272.917V273.515C75.7739 275.817 76.1385 277.486 76.8677 278.522C77.5968 279.548 78.7874 280.061 80.4395 280.061C81.8294 280.061 82.9004 279.491 83.6523 278.352C84.4043 277.212 84.7803 275.589 84.7803 273.481C84.7803 271.362 84.4043 269.761 83.6523 268.679C82.9118 267.585 81.818 267.038 80.3711 267.038ZM105.391 283L104.587 280.368H104.451C103.539 281.519 102.622 282.305 101.699 282.727C100.776 283.137 99.5915 283.342 98.1445 283.342C96.2874 283.342 94.8348 282.84 93.7866 281.838C92.7498 280.835 92.2314 279.417 92.2314 277.583C92.2314 275.634 92.9549 274.165 94.4019 273.173C95.8488 272.182 98.0534 271.641 101.016 271.55L104.28 271.447V270.439C104.28 269.231 103.995 268.331 103.425 267.739C102.867 267.135 101.995 266.833 100.811 266.833C99.8421 266.833 98.9136 266.975 98.0249 267.26C97.1362 267.545 96.2817 267.881 95.4614 268.269L94.1626 265.397C95.188 264.862 96.3102 264.458 97.5293 264.184C98.7484 263.899 99.8991 263.757 100.981 263.757C103.385 263.757 105.197 264.281 106.416 265.329C107.646 266.377 108.262 268.024 108.262 270.268V283H105.391ZM99.4092 280.266C100.868 280.266 102.035 279.861 102.913 279.052C103.801 278.232 104.246 277.087 104.246 275.617V273.977L101.819 274.079C99.9276 274.147 98.549 274.466 97.6831 275.036C96.8286 275.594 96.4014 276.455 96.4014 277.617C96.4014 278.46 96.652 279.115 97.1533 279.582C97.6546 280.038 98.4066 280.266 99.4092 280.266ZM129.829 264.099V266.303L126.599 266.901C126.895 267.3 127.14 267.79 127.334 268.371C127.528 268.952 127.625 269.567 127.625 270.217C127.625 272.165 126.952 273.697 125.608 274.814C124.264 275.931 122.412 276.489 120.054 276.489C119.45 276.489 118.903 276.443 118.413 276.352C117.547 276.888 117.114 277.514 117.114 278.232C117.114 278.665 117.314 278.99 117.712 279.206C118.123 279.423 118.869 279.531 119.951 279.531H123.25C125.334 279.531 126.918 279.975 128 280.864C129.083 281.752 129.624 283.034 129.624 284.709C129.624 286.851 128.741 288.503 126.975 289.665C125.209 290.827 122.657 291.408 119.319 291.408C116.744 291.408 114.779 290.952 113.423 290.041C112.067 289.13 111.389 287.831 111.389 286.145C111.389 284.982 111.754 284.003 112.483 283.205C113.223 282.419 114.255 281.872 115.576 281.564C115.041 281.337 114.596 280.972 114.243 280.471C113.901 279.958 113.73 279.423 113.73 278.864C113.73 278.158 113.93 277.56 114.329 277.07C114.727 276.58 115.32 276.096 116.106 275.617C115.126 275.196 114.329 274.512 113.713 273.566C113.11 272.609 112.808 271.493 112.808 270.217C112.808 268.166 113.451 266.577 114.739 265.449C116.038 264.321 117.883 263.757 120.276 263.757C120.811 263.757 121.37 263.797 121.951 263.876C122.543 263.945 122.987 264.019 123.284 264.099H129.829ZM114.978 285.939C114.978 286.805 115.365 287.472 116.14 287.939C116.926 288.406 118.026 288.64 119.438 288.64C121.626 288.64 123.255 288.326 124.326 287.7C125.397 287.073 125.933 286.241 125.933 285.205C125.933 284.384 125.636 283.798 125.044 283.444C124.463 283.103 123.375 282.932 121.78 282.932H118.738C117.587 282.932 116.67 283.199 115.986 283.735C115.314 284.282 114.978 285.017 114.978 285.939ZM116.704 270.217C116.704 271.402 117.006 272.313 117.61 272.951C118.225 273.589 119.102 273.908 120.242 273.908C122.566 273.908 123.728 272.666 123.728 270.183C123.728 268.952 123.438 268.007 122.856 267.346C122.287 266.674 121.415 266.337 120.242 266.337C119.08 266.337 118.197 266.668 117.593 267.329C117 267.989 116.704 268.952 116.704 270.217ZM141.604 283.342C138.665 283.342 136.363 282.487 134.7 280.778C133.048 279.058 132.222 276.694 132.222 273.686C132.222 270.598 132.991 268.172 134.529 266.406C136.067 264.64 138.18 263.757 140.869 263.757C143.364 263.757 145.335 264.514 146.782 266.03C148.229 267.545 148.953 269.63 148.953 272.285V274.455H136.357C136.414 276.289 136.91 277.702 137.844 278.693C138.778 279.673 140.094 280.163 141.792 280.163C142.909 280.163 143.945 280.061 144.902 279.855C145.871 279.639 146.908 279.286 148.013 278.796V282.06C147.033 282.527 146.042 282.858 145.039 283.051C144.036 283.245 142.891 283.342 141.604 283.342ZM140.869 266.799C139.593 266.799 138.568 267.203 137.793 268.012C137.03 268.821 136.574 270 136.426 271.55H145.005C144.982 269.989 144.606 268.81 143.877 268.012C143.148 267.203 142.145 266.799 140.869 266.799ZM152.917 280.864C152.917 280.032 153.134 279.394 153.567 278.95C154 278.505 154.626 278.283 155.447 278.283C156.278 278.283 156.911 278.517 157.344 278.984C157.777 279.44 157.993 280.066 157.993 280.864C157.993 281.673 157.771 282.316 157.327 282.795C156.894 283.262 156.267 283.496 155.447 283.496C154.626 283.496 154 283.262 153.567 282.795C153.134 282.328 152.917 281.684 152.917 280.864ZM170.195 280.095C171.175 280.095 172.155 279.941 173.135 279.633V282.658C172.69 282.852 172.115 283.011 171.409 283.137C170.714 283.273 169.99 283.342 169.238 283.342C165.433 283.342 163.53 281.337 163.53 277.326V267.141H160.95V265.363L163.718 263.894L165.085 259.895H167.563V264.099H172.947V267.141H167.563V277.258C167.563 278.226 167.803 278.944 168.281 279.411C168.771 279.867 169.409 280.095 170.195 280.095ZM189.626 277.617C189.626 279.462 188.954 280.881 187.61 281.872C186.265 282.852 184.34 283.342 181.833 283.342C179.316 283.342 177.293 282.96 175.767 282.197V278.728C177.988 279.753 180.056 280.266 181.97 280.266C184.443 280.266 185.679 279.519 185.679 278.027C185.679 277.548 185.542 277.15 185.269 276.831C184.995 276.512 184.545 276.181 183.918 275.839C183.292 275.498 182.42 275.11 181.304 274.677C179.128 273.834 177.652 272.991 176.877 272.148C176.114 271.305 175.732 270.211 175.732 268.867C175.732 267.249 176.382 265.996 177.681 265.107C178.991 264.207 180.768 263.757 183.013 263.757C185.234 263.757 187.336 264.207 189.319 265.107L188.02 268.132C185.981 267.289 184.266 266.867 182.876 266.867C180.757 266.867 179.697 267.471 179.697 268.679C179.697 269.271 179.971 269.772 180.518 270.183C181.076 270.593 182.284 271.157 184.141 271.875C185.701 272.478 186.835 273.031 187.542 273.532C188.248 274.034 188.772 274.615 189.114 275.275C189.456 275.925 189.626 276.705 189.626 277.617Z" fill="#231942"/>
<rect x="80" y="130" width="99" height="60" fill="white" stroke="black" stroke-width="4" stroke-linejoin="round" stroke-dasharray="7 5"/>
<path d="M154.463 86.2266H163.01V94.7735H154.463V86.2266Z" fill="black" stroke="white" stroke-width="3"/>
<path d="M171.367 86.2266H179.914V94.7735H171.367V86.2266Z" fill="black" stroke="white" stroke-width="3"/>
<path d="M188.096 86.2266H196.643V94.7735H188.096V86.2266Z" fill="black" stroke="white" stroke-width="3"/>
<path d="M209.453 78.5469V77.5469H208.453H49.5469H48.5469V78.5469V102.365V103.365H49.5469H208.453H209.453V102.365V78.5469ZM48.5469 212.843V213.843H49.5469H208.453H209.453V212.843V112.912V111.912H208.453H49.5469H48.5469V112.912V212.843ZM40 222.39V69H218V222.39H40Z" fill="black" stroke="white" stroke-width="3"/>
<line x1="694" y1="163" x2="798" y2="163" stroke="black" stroke-width="4" stroke-dasharray="7 4"/>
<path d="M352.916 178.648C352.916 180.641 353.482 182.086 354.615 182.984C355.768 183.883 357.447 184.352 359.654 184.391V188.492C355.943 188.453 353.072 187.604 351.041 185.943C349.01 184.283 347.994 181.949 347.994 178.941V170.064C347.994 168.033 347.379 166.588 346.148 165.729C344.918 164.85 343.131 164.41 340.787 164.41V160.279C343.326 160.24 345.162 159.771 346.295 158.873C347.428 157.975 347.994 156.588 347.994 154.713V145.748C347.994 142.721 349.049 140.367 351.158 138.688C353.268 137.008 356.1 136.168 359.654 136.168V140.24C355.162 140.357 352.916 142.301 352.916 146.07V154.713C352.916 158.912 350.738 161.393 346.383 162.154V162.506C350.738 163.268 352.916 165.748 352.916 169.947V178.648ZM379.996 179H372.428V149.605H362.735V143.307H389.688V149.605H379.996V179ZM416.251 169.088C416.251 172.311 415.087 174.85 412.76 176.705C410.449 178.561 407.226 179.488 403.092 179.488C399.283 179.488 395.914 178.772 392.984 177.34V170.309C395.393 171.383 397.428 172.14 399.088 172.579C400.764 173.019 402.294 173.238 403.678 173.238C405.338 173.238 406.607 172.921 407.486 172.286C408.382 171.651 408.829 170.707 408.829 169.454C408.829 168.754 408.634 168.136 408.243 167.599C407.853 167.045 407.275 166.516 406.51 166.012C405.761 165.507 404.223 164.701 401.896 163.595C399.715 162.569 398.079 161.585 396.988 160.641C395.898 159.697 395.027 158.598 394.376 157.345C393.725 156.091 393.399 154.627 393.399 152.95C393.399 149.793 394.465 147.311 396.598 145.504C398.746 143.697 401.708 142.794 405.484 142.794C407.34 142.794 409.106 143.014 410.782 143.453C412.475 143.893 414.241 144.511 416.08 145.309L413.639 151.192C411.734 150.411 410.156 149.866 408.902 149.557C407.665 149.247 406.445 149.093 405.24 149.093C403.808 149.093 402.709 149.426 401.944 150.094C401.179 150.761 400.797 151.632 400.797 152.706C400.797 153.373 400.951 153.959 401.261 154.464C401.57 154.952 402.058 155.432 402.726 155.904C403.409 156.36 405.012 157.19 407.535 158.395C410.872 159.99 413.159 161.593 414.396 163.204C415.632 164.799 416.251 166.76 416.251 169.088ZM433.521 162.154C429.166 161.393 426.988 158.912 426.988 154.713V146.07C426.988 142.301 424.771 140.357 420.338 140.24V136.168C423.932 136.168 426.754 137.018 428.805 138.717C430.875 140.416 431.91 142.76 431.91 145.748V154.713C431.91 156.607 432.486 158.004 433.639 158.902C434.791 159.781 436.637 160.24 439.176 160.279V164.41C436.793 164.41 434.986 164.85 433.756 165.729C432.525 166.588 431.91 168.033 431.91 170.064V178.941C431.91 181.93 430.904 184.254 428.893 185.914C426.9 187.594 424.049 188.453 420.338 188.492V184.391C422.506 184.352 424.156 183.883 425.289 182.984C426.422 182.086 426.988 180.641 426.988 178.648V169.947C426.988 167.721 427.525 166.021 428.6 164.85C429.674 163.678 431.314 162.896 433.521 162.506V162.154Z" fill="#231942"/>
<line x1="441" y1="163" x2="519" y2="163" stroke="black" stroke-width="4" stroke-dasharray="8 5"/>
<path d="M559.638 148.192C560.647 148.192 561.485 148.266 562.152 148.412L561.591 155.395C560.989 155.232 560.256 155.15 559.394 155.15C557.017 155.15 555.162 155.761 553.827 156.981C552.509 158.202 551.85 159.911 551.85 162.108V176H544.403V148.705H550.043L551.142 153.295H551.508C552.354 151.765 553.493 150.536 554.926 149.608C556.374 148.664 557.945 148.192 559.638 148.192ZM584.442 176L583.002 172.289H582.807C581.553 173.868 580.259 174.966 578.925 175.585C577.606 176.187 575.881 176.488 573.749 176.488C571.129 176.488 569.062 175.74 567.548 174.242C566.05 172.745 565.302 170.613 565.302 167.846C565.302 164.949 566.311 162.816 568.329 161.449C570.364 160.066 573.424 159.301 577.509 159.154L582.245 159.008V157.812C582.245 155.045 580.829 153.661 577.997 153.661C575.816 153.661 573.253 154.32 570.307 155.639L567.841 150.609C570.982 148.965 574.465 148.144 578.29 148.144C581.952 148.144 584.76 148.941 586.713 150.536C588.666 152.131 589.643 154.556 589.643 157.812V176H584.442ZM582.245 163.354L579.364 163.451C577.2 163.516 575.588 163.907 574.53 164.623C573.472 165.339 572.943 166.43 572.943 167.895C572.943 169.994 574.148 171.044 576.557 171.044C578.282 171.044 579.657 170.548 580.683 169.555C581.724 168.562 582.245 167.243 582.245 165.6V163.354ZM616.327 176H594.77V171.605L607.416 154.394H595.526V148.705H615.888V153.539L603.583 170.312H616.327V176ZM627.68 162.304C627.68 165.006 628.119 167.048 628.998 168.432C629.893 169.815 631.342 170.507 633.344 170.507C635.329 170.507 636.754 169.823 637.616 168.456C638.495 167.073 638.935 165.022 638.935 162.304C638.935 159.602 638.495 157.576 637.616 156.225C636.737 154.874 635.297 154.198 633.295 154.198C631.309 154.198 629.877 154.874 628.998 156.225C628.119 157.559 627.68 159.586 627.68 162.304ZM646.552 162.304C646.552 166.747 645.38 170.222 643.036 172.729C640.692 175.235 637.429 176.488 633.246 176.488C630.626 176.488 628.314 175.919 626.312 174.779C624.311 173.624 622.772 171.972 621.698 169.823C620.624 167.675 620.087 165.168 620.087 162.304C620.087 157.844 621.251 154.377 623.578 151.903C625.906 149.429 629.177 148.192 633.393 148.192C636.013 148.192 638.324 148.762 640.326 149.901C642.328 151.041 643.866 152.676 644.94 154.809C646.015 156.941 646.552 159.439 646.552 162.304ZM667.938 148.192C668.948 148.192 669.786 148.266 670.453 148.412L669.892 155.395C669.289 155.232 668.557 155.15 667.694 155.15C665.318 155.15 663.463 155.761 662.128 156.981C660.81 158.202 660.15 159.911 660.15 162.108V176H652.704V148.705H658.344L659.442 153.295H659.809C660.655 151.765 661.794 150.536 663.227 149.608C664.675 148.664 666.246 148.192 667.938 148.192Z" fill="#231942"/>
<path d="M538.414 174.604L514.562 164.106V161.152L538.414 149.238V153.999L520.519 162.397L538.414 169.795V174.604Z" fill="#231942"/>
<path d="M675.562 169.795L693.457 162.397L675.562 153.999V149.238L699.414 161.152V164.106L675.562 174.604V169.795Z" fill="#231942"/>
<line x1="182" y1="163" x2="339" y2="163" stroke="black" stroke-width="4" stroke-dasharray="7 4"/>
<path d="M757.942 283.342C755.549 283.342 753.692 282.482 752.371 280.761H752.131C752.291 282.356 752.371 283.325 752.371 283.667V291.408H748.354V264.099H751.602C751.693 264.452 751.881 265.295 752.166 266.628H752.371C753.624 264.714 755.504 263.757 758.01 263.757C760.369 263.757 762.203 264.611 763.513 266.32C764.835 268.029 765.496 270.428 765.496 273.515C765.496 276.603 764.823 279.012 763.479 280.744C762.146 282.476 760.3 283.342 757.942 283.342ZM756.968 267.038C755.373 267.038 754.205 267.505 753.464 268.439C752.735 269.374 752.371 270.866 752.371 272.917V273.515C752.371 275.817 752.735 277.486 753.464 278.522C754.194 279.548 755.384 280.061 757.036 280.061C758.426 280.061 759.497 279.491 760.249 278.352C761.001 277.212 761.377 275.589 761.377 273.481C761.377 271.362 761.001 269.761 760.249 268.679C759.508 267.585 758.415 267.038 756.968 267.038ZM781.987 283L781.184 280.368H781.047C780.136 281.519 779.219 282.305 778.296 282.727C777.373 283.137 776.188 283.342 774.741 283.342C772.884 283.342 771.431 282.84 770.383 281.838C769.347 280.835 768.828 279.417 768.828 277.583C768.828 275.634 769.552 274.165 770.999 273.173C772.445 272.182 774.65 271.641 777.612 271.55L780.876 271.447V270.439C780.876 269.231 780.592 268.331 780.022 267.739C779.464 267.135 778.592 266.833 777.407 266.833C776.439 266.833 775.51 266.975 774.622 267.26C773.733 267.545 772.878 267.881 772.058 268.269L770.759 265.397C771.785 264.862 772.907 264.458 774.126 264.184C775.345 263.899 776.496 263.757 777.578 263.757C779.982 263.757 781.794 264.281 783.013 265.329C784.243 266.377 784.858 268.024 784.858 270.268V283H781.987ZM776.006 280.266C777.464 280.266 778.632 279.861 779.509 279.052C780.398 278.232 780.842 277.087 780.842 275.617V273.977L778.416 274.079C776.524 274.147 775.146 274.466 774.28 275.036C773.425 275.594 772.998 276.455 772.998 277.617C772.998 278.46 773.249 279.115 773.75 279.582C774.251 280.038 775.003 280.266 776.006 280.266ZM806.426 264.099V266.303L803.196 266.901C803.492 267.3 803.737 267.79 803.931 268.371C804.124 268.952 804.221 269.567 804.221 270.217C804.221 272.165 803.549 273.697 802.205 274.814C800.86 275.931 799.009 276.489 796.65 276.489C796.047 276.489 795.5 276.443 795.01 276.352C794.144 276.888 793.711 277.514 793.711 278.232C793.711 278.665 793.91 278.99 794.309 279.206C794.719 279.423 795.465 279.531 796.548 279.531H799.846C801.931 279.531 803.515 279.975 804.597 280.864C805.68 281.752 806.221 283.034 806.221 284.709C806.221 286.851 805.338 288.503 803.572 289.665C801.806 290.827 799.254 291.408 795.916 291.408C793.341 291.408 791.375 290.952 790.02 290.041C788.664 289.13 787.986 287.831 787.986 286.145C787.986 284.982 788.35 284.003 789.08 283.205C789.82 282.419 790.851 281.872 792.173 281.564C791.637 281.337 791.193 280.972 790.84 280.471C790.498 279.958 790.327 279.423 790.327 278.864C790.327 278.158 790.527 277.56 790.925 277.07C791.324 276.58 791.917 276.096 792.703 275.617C791.723 275.196 790.925 274.512 790.31 273.566C789.706 272.609 789.404 271.493 789.404 270.217C789.404 268.166 790.048 266.577 791.335 265.449C792.634 264.321 794.48 263.757 796.873 263.757C797.408 263.757 797.966 263.797 798.547 263.876C799.14 263.945 799.584 264.019 799.88 264.099H806.426ZM791.575 285.939C791.575 286.805 791.962 287.472 792.737 287.939C793.523 288.406 794.622 288.64 796.035 288.64C798.223 288.64 799.852 288.326 800.923 287.7C801.994 287.073 802.529 286.241 802.529 285.205C802.529 284.384 802.233 283.798 801.641 283.444C801.06 283.103 799.972 282.932 798.376 282.932H795.334C794.184 282.932 793.267 283.199 792.583 283.735C791.911 284.282 791.575 285.017 791.575 285.939ZM793.301 270.217C793.301 271.402 793.603 272.313 794.207 272.951C794.822 273.589 795.699 273.908 796.838 273.908C799.163 273.908 800.325 272.666 800.325 270.183C800.325 268.952 800.034 268.007 799.453 267.346C798.883 266.674 798.012 266.337 796.838 266.337C795.676 266.337 794.793 266.668 794.189 267.329C793.597 267.989 793.301 268.952 793.301 270.217ZM818.201 283.342C815.261 283.342 812.96 282.487 811.296 280.778C809.644 279.058 808.818 276.694 808.818 273.686C808.818 270.598 809.587 268.172 811.125 266.406C812.664 264.64 814.777 263.757 817.466 263.757C819.961 263.757 821.932 264.514 823.379 266.03C824.826 267.545 825.549 269.63 825.549 272.285V274.455H812.954C813.011 276.289 813.507 277.702 814.441 278.693C815.375 279.673 816.691 280.163 818.389 280.163C819.505 280.163 820.542 280.061 821.499 279.855C822.467 279.639 823.504 279.286 824.609 278.796V282.06C823.63 282.527 822.638 282.858 821.636 283.051C820.633 283.245 819.488 283.342 818.201 283.342ZM817.466 266.799C816.19 266.799 815.164 267.203 814.39 268.012C813.626 268.821 813.171 270 813.022 271.55H821.602C821.579 269.989 821.203 268.81 820.474 268.012C819.744 267.203 818.742 266.799 817.466 266.799ZM829.514 280.864C829.514 280.032 829.731 279.394 830.164 278.95C830.597 278.505 831.223 278.283 832.043 278.283C832.875 278.283 833.507 278.517 833.94 278.984C834.373 279.44 834.59 280.066 834.59 280.864C834.59 281.673 834.368 282.316 833.923 282.795C833.49 283.262 832.864 283.496 832.043 283.496C831.223 283.496 830.597 283.262 830.164 282.795C829.731 282.328 829.514 281.684 829.514 280.864ZM847.373 283.342C844.513 283.342 842.337 282.51 840.845 280.847C839.364 279.172 838.623 276.774 838.623 273.652C838.623 270.473 839.398 268.029 840.947 266.32C842.508 264.611 844.758 263.757 847.698 263.757C849.692 263.757 851.486 264.127 853.081 264.868L851.868 268.098C850.17 267.437 848.769 267.106 847.664 267.106C844.394 267.106 842.759 269.277 842.759 273.618C842.759 275.737 843.163 277.332 843.972 278.403C844.792 279.462 845.989 279.992 847.561 279.992C849.35 279.992 851.042 279.548 852.637 278.659V282.163C851.919 282.584 851.15 282.886 850.33 283.068C849.521 283.251 848.535 283.342 847.373 283.342ZM869.778 277.617C869.778 279.462 869.106 280.881 867.761 281.872C866.417 282.852 864.491 283.342 861.985 283.342C859.467 283.342 857.445 282.96 855.918 282.197V278.728C858.14 279.753 860.208 280.266 862.122 280.266C864.594 280.266 865.83 279.519 865.83 278.027C865.83 277.548 865.693 277.15 865.42 276.831C865.146 276.512 864.696 276.181 864.07 275.839C863.443 275.498 862.572 275.11 861.455 274.677C859.279 273.834 857.804 272.991 857.029 272.148C856.265 271.305 855.884 270.211 855.884 268.867C855.884 267.249 856.533 265.996 857.832 265.107C859.142 264.207 860.92 263.757 863.164 263.757C865.386 263.757 867.488 264.207 869.47 265.107L868.171 268.132C866.132 267.289 864.417 266.867 863.027 266.867C860.908 266.867 859.849 267.471 859.849 268.679C859.849 269.271 860.122 269.772 860.669 270.183C861.227 270.593 862.435 271.157 864.292 271.875C865.853 272.478 866.986 273.031 867.693 273.532C868.399 274.034 868.923 274.615 869.265 275.275C869.607 275.925 869.778 276.705 869.778 277.617ZM890.764 283H886.731V271.379C886.731 269.921 886.435 268.833 885.842 268.115C885.261 267.397 884.333 267.038 883.057 267.038C881.37 267.038 880.129 267.545 879.331 268.559C878.545 269.562 878.152 271.248 878.152 273.618V283H874.136V256.408H878.152V263.159C878.152 264.241 878.083 265.397 877.947 266.628H878.203C878.75 265.716 879.508 265.01 880.476 264.509C881.456 264.007 882.595 263.757 883.894 263.757C888.474 263.757 890.764 266.064 890.764 270.678V283ZM903.394 280.095C904.373 280.095 905.353 279.941 906.333 279.633V282.658C905.889 282.852 905.313 283.011 904.607 283.137C903.912 283.273 903.188 283.342 902.437 283.342C898.631 283.342 896.729 281.337 896.729 277.326V267.141H894.148V265.363L896.917 263.894L898.284 259.895H900.762V264.099H906.145V267.141H900.762V277.258C900.762 278.226 901.001 278.944 901.479 279.411C901.969 279.867 902.607 280.095 903.394 280.095ZM926.055 283H922.021V271.345C922.021 269.898 921.748 268.821 921.201 268.115C920.654 267.397 919.8 267.038 918.638 267.038C917.088 267.038 915.949 267.545 915.22 268.559C914.502 269.562 914.143 271.236 914.143 273.583V283H910.127V264.099H913.271L913.835 266.577H914.041C914.565 265.677 915.322 264.982 916.313 264.492C917.316 264.002 918.416 263.757 919.612 263.757C922.517 263.757 924.443 264.748 925.388 266.73H925.662C926.22 265.796 927.006 265.067 928.02 264.543C929.034 264.019 930.196 263.757 931.506 263.757C933.762 263.757 935.403 264.326 936.428 265.466C937.465 266.605 937.983 268.343 937.983 270.678V283H933.967V271.345C933.967 269.898 933.688 268.821 933.13 268.115C932.583 267.397 931.729 267.038 930.566 267.038C929.006 267.038 927.861 267.528 927.131 268.508C926.414 269.476 926.055 270.969 926.055 272.985V283ZM947.605 283H943.589V256.408H947.605V283ZM952.766 280.864C952.766 280.032 952.983 279.394 953.416 278.95C953.848 278.505 954.475 278.283 955.295 278.283C956.127 278.283 956.759 278.517 957.192 278.984C957.625 279.44 957.842 280.066 957.842 280.864C957.842 281.673 957.62 282.316 957.175 282.795C956.742 283.262 956.116 283.496 955.295 283.496C954.475 283.496 953.848 283.262 953.416 282.795C952.983 282.328 952.766 281.684 952.766 280.864ZM970.625 283.342C967.765 283.342 965.589 282.51 964.097 280.847C962.616 279.172 961.875 276.774 961.875 273.652C961.875 270.473 962.65 268.029 964.199 266.32C965.76 264.611 968.01 263.757 970.95 263.757C972.944 263.757 974.738 264.127 976.333 264.868L975.12 268.098C973.422 267.437 972.021 267.106 970.916 267.106C967.646 267.106 966.011 269.277 966.011 273.618C966.011 275.737 966.415 277.332 967.224 278.403C968.044 279.462 969.241 279.992 970.813 279.992C972.602 279.992 974.294 279.548 975.889 278.659V282.163C975.171 282.584 974.402 282.886 973.582 283.068C972.773 283.251 971.787 283.342 970.625 283.342ZM993.03 277.617C993.03 279.462 992.358 280.881 991.013 281.872C989.669 282.852 987.743 283.342 985.237 283.342C982.719 283.342 980.697 282.96 979.17 282.197V278.728C981.392 279.753 983.459 280.266 985.374 280.266C987.846 280.266 989.082 279.519 989.082 278.027C989.082 277.548 988.945 277.15 988.672 276.831C988.398 276.512 987.948 276.181 987.322 275.839C986.695 275.498 985.824 275.11 984.707 274.677C982.531 273.834 981.056 272.991 980.281 272.148C979.517 271.305 979.136 270.211 979.136 268.867C979.136 267.249 979.785 265.996 981.084 265.107C982.394 264.207 984.172 263.757 986.416 263.757C988.638 263.757 990.74 264.207 992.722 265.107L991.423 268.132C989.384 267.289 987.669 266.867 986.279 266.867C984.16 266.867 983.101 267.471 983.101 268.679C983.101 269.271 983.374 269.772 983.921 270.183C984.479 270.593 985.687 271.157 987.544 271.875C989.105 272.478 990.238 273.031 990.945 273.532C991.651 274.034 992.175 274.615 992.517 275.275C992.859 275.925 993.03 276.705 993.03 277.617Z" fill="#231942"/>
<path d="M935.077 106.692H804V172.231H862.154V217.462H852.923V220.231V229.923V232.692H886.615V229.923V220.231V217.462H877.846V172.231H935.077V106.692Z" fill="white"/>
<path d="M945.692 220.231H886.615M886.615 220.231V217.462H877.846V172.231H935.077V106.692H804V172.231H862.154V217.462H852.923V220.231M886.615 220.231V229.923M945.692 229.923H886.615M886.615 229.923V232.692H852.923V229.923M794.769 220.231H852.923M852.923 220.231V229.923M794.769 229.923H852.923" stroke="black" stroke-width="5.53846"/>
<path d="M794.769 81.769H945.231V113.154H794.769V81.769Z" fill="white"/>
<path d="M809.077 96.9998H888.923M933.231 96.9998H926.308M911.077 96.9998H904.154M794.769 81.769H945.231V113.154H794.769V81.769Z" stroke="black" stroke-width="5.07692"/>
<path d="M794.769 124.231H945.231V155.616H794.769V124.231Z" fill="white"/>
<path d="M809.077 139.462H888.923M933.231 139.462H926.308M911.077 139.462H904.154M794.769 124.231H945.231V155.616H794.769V124.231Z" stroke="black" stroke-width="5.07692"/>
<path d="M794.769 165.769H945.231V197.154H794.769V165.769Z" fill="white"/>
<path d="M809.077 181H888.923M933.231 181H926.308M911.077 181H904.154M794.769 165.769H945.231V197.154H794.769V165.769Z" stroke="black" stroke-width="5.07692"/>
</svg>
