<svg width="169" height="170" viewBox="0 0 169 170" fill="none" xmlns="http://www.w3.org/2000/svg">
<path d="M155 30H13V101H76V150H66V153V163.5V166.5H102.5V163.5V153V150H93V101H155V30Z" fill="white"/>
<path d="M166.5 153H102.5M102.5 153V150H93V101H155V30H13V101H76V150H66V153M102.5 153V163.5M166.5 163.5H102.5M102.5 163.5V166.5H66V163.5M3 153H66M66 153V163.5M3 163.5H66" stroke="black" stroke-width="6"/>
<path d="M3 3H166V37H3V3Z" fill="white"/>
<path d="M18.5 19.5H105M153 19.5H145.5M129 19.5H121.5M3 3H166V37H3V3Z" stroke="black" stroke-width="5.5"/>
<path d="M3 49H166V83H3V49Z" fill="white"/>
<path d="M18.5 65.5H105M153 65.5H145.5M129 65.5H121.5M3 49H166V83H3V49Z" stroke="black" stroke-width="5.5"/>
<path d="M3 94H166V128H3V94Z" fill="white"/>
<path d="M18.5 110.5H105M153 110.5H145.5M129 110.5H121.5M3 94H166V128H3V94Z" stroke="black" stroke-width="5.5"/>
</svg>
